<svg width="389" height="340" viewBox="0 0 389 340" fill="none" xmlns="http://www.w3.org/2000/svg">
<ellipse cx="191.5" cy="167.5" rx="71.5" ry="68.5" fill="#72EB7F" fill-opacity="0.95"/>
<ellipse cx="191.5" cy="168" rx="67.5" ry="65" fill="white" fill-opacity="0.95"/>
<path d="M180.936 142.422H182.112V155.106H180.936V142.422ZM181.832 147.42H184.184V148.4H181.832V147.42ZM172.914 150.976H173.908C176.246 150.976 177.884 150.892 179.774 150.542L179.9 151.522C177.954 151.886 176.288 151.956 173.908 151.956H172.914V150.976ZM172.914 143.654H178.794V144.606H174.062V151.41H172.914V143.654ZM194.725 144.326H196.923V145.292H194.725V144.326ZM194.725 147.014H196.923V147.98H194.725V147.014ZM188.789 143.178C190.693 143.178 192.093 144.41 192.093 146.174C192.093 147.924 190.693 149.142 188.789 149.142C186.885 149.142 185.485 147.924 185.485 146.174C185.485 144.41 186.885 143.178 188.789 143.178ZM188.789 144.158C187.529 144.158 186.619 144.984 186.619 146.174C186.619 147.364 187.529 148.176 188.789 148.176C190.049 148.176 190.959 147.364 190.959 146.174C190.959 144.984 190.049 144.158 188.789 144.158ZM193.913 142.436H195.075V149.926H193.913V142.436ZM191.043 150.332C193.619 150.332 195.201 151.214 195.201 152.698C195.201 154.196 193.619 155.064 191.043 155.064C188.467 155.064 186.885 154.196 186.885 152.698C186.885 151.214 188.467 150.332 191.043 150.332ZM191.043 151.27C189.167 151.27 188.019 151.788 188.019 152.698C188.019 153.608 189.167 154.14 191.043 154.14C192.919 154.14 194.067 153.608 194.067 152.698C194.067 151.788 192.919 151.27 191.043 151.27ZM206.791 142.45H207.953V151.942H206.791V142.45ZM207.589 146.594H209.829V147.574H207.589V146.594ZM198.167 143.976H205.643V144.914H198.167V143.976ZM201.905 145.614C203.697 145.614 204.929 146.552 204.929 147.98C204.929 149.394 203.697 150.332 201.905 150.332C200.099 150.332 198.867 149.394 198.867 147.98C198.867 146.552 200.099 145.614 201.905 145.614ZM201.905 146.524C200.757 146.524 199.973 147.098 199.973 147.98C199.973 148.848 200.757 149.422 201.905 149.422C203.039 149.422 203.823 148.848 203.823 147.98C203.823 147.098 203.039 146.524 201.905 146.524ZM201.317 142.436H202.479V144.466H201.317V142.436ZM200.071 153.86H208.527V154.812H200.071V153.86ZM200.071 151.186H201.233V154.266H200.071V151.186ZM155.737 171H154.444L158.183 160.818H159.455L163.194 171H161.901L158.859 162.429H158.779L155.737 171ZM156.214 167.023H161.424V168.116H156.214V167.023ZM164.621 173.864V163.364H165.754V164.577H165.893C165.98 164.444 166.099 164.275 166.251 164.07C166.407 163.861 166.629 163.675 166.918 163.513C167.209 163.347 167.604 163.264 168.101 163.264C168.744 163.264 169.311 163.425 169.801 163.746C170.292 164.068 170.674 164.524 170.95 165.114C171.225 165.704 171.362 166.4 171.362 167.202C171.362 168.01 171.225 168.711 170.95 169.305C170.674 169.895 170.293 170.352 169.806 170.677C169.319 170.998 168.757 171.159 168.121 171.159C167.63 171.159 167.237 171.078 166.942 170.915C166.647 170.75 166.42 170.562 166.261 170.354C166.102 170.142 165.98 169.966 165.893 169.827H165.794V173.864H164.621ZM165.774 167.182C165.774 167.759 165.859 168.267 166.028 168.708C166.197 169.146 166.444 169.489 166.768 169.737C167.093 169.982 167.491 170.105 167.962 170.105C168.452 170.105 168.862 169.976 169.19 169.717C169.521 169.455 169.77 169.104 169.935 168.663C170.104 168.219 170.189 167.725 170.189 167.182C170.189 166.645 170.106 166.161 169.94 165.73C169.778 165.296 169.531 164.953 169.2 164.701C168.871 164.446 168.459 164.318 167.962 164.318C167.484 164.318 167.083 164.439 166.759 164.681C166.434 164.92 166.188 165.254 166.023 165.685C165.857 166.113 165.774 166.612 165.774 167.182ZM173.152 173.864V163.364H174.286V164.577H174.425C174.511 164.444 174.63 164.275 174.783 164.07C174.938 163.861 175.161 163.675 175.449 163.513C175.741 163.347 176.135 163.264 176.632 163.264C177.275 163.264 177.842 163.425 178.332 163.746C178.823 164.068 179.206 164.524 179.481 165.114C179.756 165.704 179.893 166.4 179.893 167.202C179.893 168.01 179.756 168.711 179.481 169.305C179.206 169.895 178.825 170.352 178.337 170.677C177.85 170.998 177.288 171.159 176.652 171.159C176.161 171.159 175.769 171.078 175.474 170.915C175.179 170.75 174.952 170.562 174.793 170.354C174.634 170.142 174.511 169.966 174.425 169.827H174.325V173.864H173.152ZM174.305 167.182C174.305 167.759 174.39 168.267 174.559 168.708C174.728 169.146 174.975 169.489 175.3 169.737C175.625 169.982 176.022 170.105 176.493 170.105C176.983 170.105 177.393 169.976 177.721 169.717C178.052 169.455 178.301 169.104 178.467 168.663C178.636 168.219 178.72 167.725 178.72 167.182C178.72 166.645 178.637 166.161 178.472 165.73C178.309 165.296 178.062 164.953 177.731 164.701C177.403 164.446 176.99 164.318 176.493 164.318C176.016 164.318 175.615 164.439 175.29 164.681C174.965 164.92 174.72 165.254 174.554 165.685C174.388 166.113 174.305 166.612 174.305 167.182ZM182.857 160.818V171H181.683V160.818H182.857ZM185.006 171V163.364H186.179V171H185.006ZM185.602 162.091C185.373 162.091 185.176 162.013 185.01 161.857C184.848 161.701 184.767 161.514 184.767 161.295C184.767 161.077 184.848 160.889 185.01 160.734C185.176 160.578 185.373 160.5 185.602 160.5C185.831 160.5 186.026 160.578 186.189 160.734C186.354 160.889 186.437 161.077 186.437 161.295C186.437 161.514 186.354 161.701 186.189 161.857C186.026 162.013 185.831 162.091 185.602 162.091ZM191.43 171.159C190.714 171.159 190.098 170.99 189.581 170.652C189.064 170.314 188.666 169.848 188.387 169.255C188.109 168.662 187.97 167.984 187.97 167.222C187.97 166.446 188.112 165.762 188.397 165.168C188.686 164.572 189.087 164.106 189.6 163.771C190.118 163.433 190.721 163.264 191.41 163.264C191.947 163.264 192.431 163.364 192.862 163.562C193.293 163.761 193.646 164.04 193.921 164.398C194.196 164.756 194.367 165.173 194.433 165.651H193.26C193.17 165.303 192.971 164.994 192.663 164.726C192.358 164.454 191.947 164.318 191.43 164.318C190.973 164.318 190.572 164.437 190.227 164.676C189.886 164.911 189.619 165.245 189.426 165.675C189.238 166.103 189.143 166.605 189.143 167.182C189.143 167.772 189.236 168.286 189.422 168.723C189.61 169.161 189.876 169.5 190.217 169.742C190.562 169.984 190.966 170.105 191.43 170.105C191.735 170.105 192.012 170.052 192.26 169.946C192.509 169.84 192.719 169.688 192.892 169.489C193.064 169.29 193.187 169.051 193.26 168.773H194.433C194.367 169.223 194.203 169.629 193.941 169.991C193.682 170.349 193.339 170.634 192.912 170.846C192.487 171.055 191.993 171.159 191.43 171.159ZM198.395 171.179C197.911 171.179 197.472 171.088 197.078 170.906C196.683 170.72 196.37 170.453 196.138 170.105C195.906 169.754 195.79 169.33 195.79 168.832C195.79 168.395 195.876 168.04 196.049 167.768C196.221 167.493 196.451 167.278 196.74 167.122C197.028 166.966 197.346 166.85 197.694 166.774C198.046 166.695 198.399 166.632 198.753 166.585C199.217 166.526 199.593 166.481 199.882 166.451C200.173 166.418 200.386 166.363 200.518 166.287C200.654 166.211 200.722 166.078 200.722 165.889V165.849C200.722 165.359 200.588 164.978 200.319 164.706C200.054 164.434 199.651 164.298 199.111 164.298C198.551 164.298 198.112 164.421 197.794 164.666C197.475 164.911 197.252 165.173 197.123 165.452L196.009 165.054C196.208 164.59 196.473 164.229 196.804 163.97C197.139 163.708 197.504 163.526 197.898 163.423C198.296 163.317 198.687 163.264 199.071 163.264C199.317 163.264 199.598 163.294 199.917 163.354C200.238 163.41 200.548 163.528 200.846 163.707C201.148 163.886 201.398 164.156 201.597 164.517C201.796 164.878 201.895 165.362 201.895 165.969V171H200.722V169.966H200.662C200.583 170.132 200.45 170.309 200.265 170.498C200.079 170.687 199.832 170.848 199.524 170.98C199.216 171.113 198.839 171.179 198.395 171.179ZM198.574 170.125C199.038 170.125 199.429 170.034 199.748 169.852C200.069 169.669 200.311 169.434 200.473 169.146C200.639 168.857 200.722 168.554 200.722 168.236V167.162C200.672 167.222 200.563 167.276 200.394 167.326C200.228 167.372 200.036 167.414 199.817 167.45C199.602 167.483 199.391 167.513 199.186 167.54C198.984 167.563 198.819 167.583 198.694 167.599C198.389 167.639 198.104 167.704 197.838 167.793C197.577 167.879 197.364 168.01 197.202 168.186C197.043 168.358 196.963 168.594 196.963 168.892C196.963 169.3 197.114 169.608 197.416 169.817C197.721 170.022 198.107 170.125 198.574 170.125ZM207.358 163.364V164.358H203.4V163.364H207.358ZM204.554 161.534H205.727V168.812C205.727 169.144 205.775 169.393 205.871 169.558C205.971 169.721 206.097 169.83 206.249 169.886C206.405 169.939 206.569 169.966 206.741 169.966C206.871 169.966 206.977 169.959 207.059 169.946C207.142 169.929 207.209 169.916 207.258 169.906L207.497 170.96C207.417 170.99 207.306 171.02 207.164 171.05C207.021 171.083 206.841 171.099 206.622 171.099C206.291 171.099 205.966 171.028 205.648 170.886C205.333 170.743 205.071 170.526 204.862 170.234C204.657 169.943 204.554 169.575 204.554 169.131V161.534ZM209.123 171V163.364H210.296V171H209.123ZM209.719 162.091C209.491 162.091 209.293 162.013 209.128 161.857C208.965 161.701 208.884 161.514 208.884 161.295C208.884 161.077 208.965 160.889 209.128 160.734C209.293 160.578 209.491 160.5 209.719 160.5C209.948 160.5 210.144 160.578 210.306 160.734C210.472 160.889 210.555 161.077 210.555 161.295C210.555 161.514 210.472 161.701 210.306 161.857C210.144 162.013 209.948 162.091 209.719 162.091ZM215.547 171.159C214.858 171.159 214.253 170.995 213.733 170.667C213.216 170.339 212.811 169.88 212.52 169.29C212.231 168.7 212.087 168.01 212.087 167.222C212.087 166.426 212.231 165.732 212.52 165.138C212.811 164.545 213.216 164.085 213.733 163.756C214.253 163.428 214.858 163.264 215.547 163.264C216.237 163.264 216.84 163.428 217.357 163.756C217.877 164.085 218.282 164.545 218.57 165.138C218.862 165.732 219.007 166.426 219.007 167.222C219.007 168.01 218.862 168.7 218.57 169.29C218.282 169.88 217.877 170.339 217.357 170.667C216.84 170.995 216.237 171.159 215.547 171.159ZM215.547 170.105C216.071 170.105 216.502 169.971 216.84 169.702C217.178 169.434 217.428 169.081 217.591 168.643C217.753 168.206 217.834 167.732 217.834 167.222C217.834 166.711 217.753 166.236 217.591 165.795C217.428 165.354 217.178 164.998 216.84 164.726C216.502 164.454 216.071 164.318 215.547 164.318C215.024 164.318 214.593 164.454 214.255 164.726C213.917 164.998 213.666 165.354 213.504 165.795C213.342 166.236 213.26 166.711 213.26 167.222C213.26 167.732 213.342 168.206 213.504 168.643C213.666 169.081 213.917 169.434 214.255 169.702C214.593 169.971 215.024 170.105 215.547 170.105ZM221.972 166.406V171H220.798V163.364H221.932V164.557H222.031C222.21 164.169 222.482 163.857 222.847 163.622C223.211 163.384 223.682 163.264 224.259 163.264C224.776 163.264 225.228 163.37 225.616 163.582C226.004 163.791 226.305 164.109 226.521 164.537C226.736 164.961 226.844 165.498 226.844 166.148V171H225.671V166.227C225.671 165.627 225.515 165.16 225.203 164.825C224.892 164.487 224.464 164.318 223.921 164.318C223.546 164.318 223.211 164.399 222.916 164.562C222.625 164.724 222.394 164.961 222.225 165.273C222.056 165.584 221.972 165.962 221.972 166.406ZM157.811 176.436H158.973V189.092H157.811V176.436ZM154.101 177.794H155.249C155.249 181.462 153.597 184.668 149.369 186.74L148.753 185.802C152.407 184.038 154.101 181.35 154.101 177.99V177.794ZM149.327 177.794H154.605V178.746H149.327V177.794ZM161.94 177.584H169.346V178.452H161.94V177.584ZM165.65 178.942C167.47 178.942 168.66 179.67 168.66 180.818C168.66 181.98 167.47 182.708 165.65 182.708C163.844 182.708 162.654 181.98 162.654 180.818C162.654 179.67 163.844 178.942 165.65 178.942ZM165.65 179.754C164.516 179.754 163.746 180.16 163.746 180.818C163.746 181.462 164.516 181.896 165.65 181.896C166.812 181.896 167.554 181.462 167.554 180.818C167.554 180.16 166.812 179.754 165.65 179.754ZM165.062 176.352H166.238V178.046H165.062V176.352ZM165.062 182.246H166.238V183.968H165.062V182.246ZM170.662 176.45H171.824V184.92H170.662V176.45ZM163.34 185.508H171.824V189.092H170.662V186.432H163.34V185.508ZM161.688 184.528L161.534 183.59C163.858 183.59 166.994 183.576 169.654 183.212L169.738 184.024C166.98 184.486 163.97 184.528 161.688 184.528ZM178.331 177.341L175.049 189.531H173.975L177.257 177.341H178.331ZM180.775 177.262H188.685V178.2H180.775V177.262ZM179.347 182.694H190.785V183.646H179.347V182.694ZM184.457 183.324H185.619V189.106H184.457V183.324ZM188.139 177.262H189.273V178.354C189.273 179.67 189.273 181.154 188.797 183.296L187.649 183.142C188.139 181.098 188.139 179.628 188.139 178.354V177.262ZM197.364 183.478H198.512V185.466H197.364V183.478ZM192.212 182.806H203.65V183.744H192.212V182.806ZM193.486 185.172H202.236V189.05H201.074V186.124H193.486V185.172ZM197.364 176.366H198.512V178.13H197.364V176.366ZM197.308 178.284H198.33V178.494C198.33 180.58 196.02 181.798 193.262 182.092L192.898 181.21C195.348 180.986 197.308 179.95 197.308 178.494V178.284ZM197.546 178.284H198.568V178.494C198.568 179.95 200.528 180.986 202.978 181.21L202.614 182.092C199.842 181.798 197.546 180.58 197.546 178.494V178.284ZM193.388 177.668H202.488V178.606H193.388V177.668ZM215.091 178.76H218.479V179.712H215.091V178.76ZM214.979 181.392H218.395V182.344H214.979V181.392ZM218.283 176.436H219.445V184.024H218.283V176.436ZM214.321 177.388H215.567C215.567 180.65 213.313 182.932 209.673 184.024L209.197 183.086C212.431 182.148 214.321 180.286 214.321 177.892V177.388ZM209.855 177.388H215.119V178.34H209.855V177.388ZM215.329 184.164C217.891 184.164 219.515 185.074 219.515 186.6C219.515 188.126 217.891 189.036 215.329 189.036C212.767 189.036 211.143 188.126 211.143 186.6C211.143 185.074 212.767 184.164 215.329 184.164ZM215.329 185.074C213.481 185.074 212.291 185.648 212.291 186.6C212.291 187.552 213.481 188.112 215.329 188.112C217.191 188.112 218.381 187.552 218.381 186.6C218.381 185.648 217.191 185.074 215.329 185.074ZM231.162 176.436H232.324V184.094H231.162V176.436ZM229.062 180.272H231.68V181.238H229.062V180.272ZM224.12 184.766H232.324V188.924H224.12V184.766ZM231.19 185.704H225.254V187.986H231.19V185.704ZM221.936 177.752H229.258V178.69H221.936V177.752ZM225.59 179.334C227.298 179.334 228.516 180.258 228.516 181.602C228.516 182.946 227.298 183.842 225.59 183.842C223.882 183.842 222.664 182.946 222.664 181.602C222.664 180.258 223.882 179.334 225.59 179.334ZM225.59 180.23C224.526 180.23 223.77 180.776 223.77 181.602C223.77 182.414 224.526 182.96 225.59 182.96C226.654 182.96 227.41 182.414 227.41 181.602C227.41 180.776 226.654 180.23 225.59 180.23ZM225.016 176.31H226.178V178.424H225.016V176.31Z" fill="#A29A9A"/>
<line x1="110.32" y1="122.616" x2="128.32" y2="137.616" stroke="#72EB7F" stroke-opacity="0.95"/>
<line x1="244.656" y1="121.64" x2="263.656" y2="103.637" stroke="#72EB7F" stroke-opacity="0.95"/>
<line x1="254.291" y1="197.593" x2="275.291" y2="212.593" stroke="#72EB7F" stroke-opacity="0.95"/>
<line x1="104.66" y1="239.633" x2="135.973" y2="210.633" stroke="#72EB7F" stroke-opacity="0.95"/>
<circle cx="305" cy="60" r="60" fill="#72EB7F" fill-opacity="0.7"/>
<path d="M266.288 48.832H267.152V49.66C267.152 52.024 264.956 53.86 262.784 54.352L262.34 53.524C264.248 53.164 266.288 51.508 266.288 49.66V48.832ZM266.468 48.832H267.332V49.66C267.332 51.52 269.384 53.164 271.28 53.524L270.836 54.352C268.676 53.86 266.468 52.036 266.468 49.66V48.832ZM261.944 56.656H271.772V57.472H261.944V56.656ZM273.403 49.168H278.383V56.188H273.403V49.168ZM277.411 49.972H274.375V55.384H277.411V49.972ZM280.315 48.088H281.323V58.936H280.315V48.088ZM281.083 52.42H283.099V53.26H281.083V52.42ZM285.282 53.932H292.734V54.736H285.282V53.932ZM284.022 56.716H293.85V57.544H284.022V56.716ZM285.282 49.012H292.614V49.828H286.29V54.184H285.282V49.012ZM285.966 51.436H292.386V52.228H285.966V51.436ZM295.961 48.58H303.929V49.384H295.961V48.58ZM296.009 51.844H303.881V52.648H296.009V51.844ZM297.605 48.952H298.601V52.204H297.605V48.952ZM301.301 48.952H302.285V52.204H301.301V48.952ZM295.049 53.956H304.853V54.772H295.049V53.956ZM299.465 52.384H300.449V54.46H299.465V52.384ZM296.321 57.88H303.773V58.696H296.321V57.88ZM296.321 55.708H297.317V58.144H296.321V55.708ZM306.1 56.728H315.928V57.556H306.1V56.728ZM310.492 53.92H311.488V56.956H310.492V53.92ZM307.24 48.988H314.728V54.1H307.24V48.988ZM313.768 49.792H308.212V53.296H313.768V49.792ZM325.023 48.1H326.031V54.292H325.023V48.1ZM319.023 54.88H326.031V58.792H319.023V54.88ZM325.047 55.672H319.995V57.988H325.047V55.672ZM320.211 48.664C321.855 48.664 323.031 49.696 323.031 51.196C323.031 52.696 321.855 53.728 320.211 53.728C318.567 53.728 317.379 52.696 317.379 51.196C317.379 49.696 318.567 48.664 320.211 48.664ZM320.211 49.492C319.131 49.492 318.351 50.188 318.351 51.196C318.351 52.204 319.131 52.888 320.211 52.888C321.291 52.888 322.071 52.204 322.071 51.196C322.071 50.188 321.291 49.492 320.211 49.492ZM333.59 51.76H336.614V52.576H333.59V51.76ZM330.974 49.024H331.79V50.956C331.79 53.392 330.506 55.72 328.79 56.644L328.154 55.852C329.75 55.06 330.974 52.972 330.974 50.956V49.024ZM331.166 49.024H331.97V50.956C331.97 52.936 333.194 54.904 334.766 55.648L334.178 56.452C332.426 55.564 331.166 53.332 331.166 50.956V49.024ZM336.122 48.076H337.106V58.948H336.122V48.076ZM347.089 48.076H348.085V58.948H347.089V48.076ZM339.829 49H340.813V51.868H343.945V49H344.941V56.332H339.829V49ZM340.813 52.66V55.516H343.945V52.66H340.813ZM266.973 63.832H267.837V64.66C267.837 67.024 265.641 68.86 263.469 69.352L263.025 68.524C264.933 68.164 266.973 66.508 266.973 64.66V63.832ZM267.153 63.832H268.017V64.66C268.017 66.52 270.069 68.164 271.965 68.524L271.521 69.352C269.361 68.86 267.153 67.036 267.153 64.66V63.832ZM262.629 71.656H272.457V72.472H262.629V71.656ZM278.233 64.2727V67.2727H277.296V64.2727H278.233ZM280.415 64.2727V67.2727H279.477V64.2727H280.415ZM287.113 66.4545C287.062 66.0227 286.854 65.6875 286.491 65.4489C286.127 65.2102 285.681 65.0909 285.153 65.0909C284.766 65.0909 284.428 65.1534 284.138 65.2784C283.851 65.4034 283.627 65.5753 283.465 65.794C283.306 66.0128 283.226 66.2614 283.226 66.5398C283.226 66.7727 283.282 66.973 283.393 67.1406C283.506 67.3054 283.651 67.4432 283.827 67.554C284.003 67.6619 284.188 67.7514 284.381 67.8224C284.574 67.8906 284.752 67.946 284.914 67.9886L285.8 68.2273C286.028 68.2869 286.28 68.3693 286.559 68.4744C286.84 68.5795 287.108 68.723 287.364 68.9048C287.623 69.0838 287.836 69.3139 288.003 69.5952C288.171 69.8764 288.255 70.2216 288.255 70.6307C288.255 71.1023 288.131 71.5284 287.884 71.9091C287.64 72.2898 287.282 72.5923 286.81 72.8168C286.341 73.0412 285.772 73.1534 285.101 73.1534C284.476 73.1534 283.935 73.0526 283.478 72.8509C283.023 72.6491 282.665 72.3679 282.404 72.0071C282.145 71.6463 281.999 71.2273 281.965 70.75H283.056C283.084 71.0795 283.195 71.3523 283.388 71.5682C283.584 71.7812 283.831 71.9403 284.13 72.0455C284.431 72.1477 284.755 72.1989 285.101 72.1989C285.505 72.1989 285.867 72.1335 286.188 72.0028C286.509 71.8693 286.763 71.6847 286.951 71.4489C287.138 71.2102 287.232 70.9318 287.232 70.6136C287.232 70.3239 287.151 70.0881 286.989 69.9062C286.827 69.7244 286.614 69.5767 286.35 69.4631C286.086 69.3494 285.8 69.25 285.493 69.1648L284.42 68.858C283.738 68.6619 283.198 68.3821 282.8 68.0185C282.403 67.6548 282.204 67.179 282.204 66.5909C282.204 66.1023 282.336 65.6761 282.6 65.3125C282.867 64.946 283.225 64.6619 283.674 64.4602C284.126 64.2557 284.63 64.1534 285.187 64.1534C285.749 64.1534 286.249 64.2543 286.687 64.456C287.124 64.6548 287.471 64.9276 287.726 65.2741C287.985 65.6207 288.121 66.0142 288.135 66.4545H287.113ZM289.524 68.788H299.328V69.604H289.524V68.788ZM290.796 72.88H298.248V73.696H290.796V72.88ZM290.796 70.552H291.792V73.132H290.796V70.552ZM294.432 63.448C296.748 63.448 298.248 64.264 298.248 65.62C298.248 66.964 296.748 67.78 294.432 67.78C292.104 67.78 290.616 66.964 290.616 65.62C290.616 64.264 292.104 63.448 294.432 63.448ZM294.432 64.264C292.728 64.264 291.636 64.768 291.636 65.62C291.636 66.472 292.728 66.976 294.432 66.976C296.136 66.976 297.228 66.472 297.228 65.62C297.228 64.768 296.136 64.264 294.432 64.264ZM308.759 63.088H309.707V69.952H308.759V63.088ZM306.995 66.028H309.047V66.856H306.995V66.028ZM306.443 63.304H307.379V69.568H306.443V63.304ZM300.515 64.384H306.011V65.176H300.515V64.384ZM303.275 65.728C304.631 65.728 305.579 66.472 305.579 67.588C305.579 68.716 304.631 69.448 303.275 69.448C301.907 69.448 300.959 68.716 300.959 67.588C300.959 66.472 301.907 65.728 303.275 65.728ZM303.275 66.472C302.423 66.472 301.847 66.916 301.847 67.588C301.847 68.272 302.423 68.704 303.275 68.704C304.115 68.704 304.691 68.272 304.691 67.588C304.691 66.916 304.115 66.472 303.275 66.472ZM302.783 63.172H303.755V64.828H302.783V63.172ZM306.155 70.144C308.411 70.144 309.767 70.816 309.767 72.028C309.767 73.228 308.411 73.912 306.155 73.912C303.875 73.912 302.531 73.228 302.531 72.028C302.531 70.816 303.875 70.144 306.155 70.144ZM306.155 70.912C304.487 70.912 303.515 71.308 303.515 72.028C303.515 72.748 304.487 73.156 306.155 73.156C307.799 73.156 308.783 72.748 308.783 72.028C308.783 71.308 307.799 70.912 306.155 70.912ZM316.246 63.784H317.29C317.29 66.544 315.31 68.488 312.118 69.34L311.734 68.548C314.554 67.804 316.246 66.232 316.246 64.228V63.784ZM312.298 63.784H316.822V64.588H312.298V63.784ZM319.498 63.088H320.506V69.208H319.498V63.088ZM313.486 69.736H320.506V73.792H313.486V69.736ZM319.522 70.54H314.47V72.976H319.522V70.54ZM322.641 68.704H332.445V69.508H322.641V68.704ZM327.057 67.372H328.041V69.076H327.057V67.372ZM327.057 63.052H328.041V64.564H327.057V63.052ZM327.009 64.66H327.885V64.84C327.885 66.616 325.893 67.648 323.517 67.888L323.217 67.12C325.317 66.94 327.009 66.076 327.009 64.84V64.66ZM327.213 64.66H328.089V64.84C328.089 66.076 329.781 66.94 331.881 67.12L331.581 67.888C329.205 67.648 327.213 66.616 327.213 64.84V64.66ZM323.649 64.144H331.449V64.936H323.649V64.144ZM327.537 70.324C329.877 70.324 331.257 70.96 331.257 72.124C331.257 73.288 329.877 73.912 327.537 73.912C325.197 73.912 323.817 73.288 323.817 72.124C323.817 70.96 325.197 70.324 327.537 70.324ZM327.537 71.08C325.821 71.08 324.825 71.44 324.825 72.124C324.825 72.784 325.821 73.156 327.537 73.156C329.253 73.156 330.249 72.784 330.249 72.124C330.249 71.44 329.253 71.08 327.537 71.08ZM333.68 69.388H343.52V70.204H333.68V69.388ZM338.072 69.88H339.056V73.936H338.072V69.88ZM334.928 63.688H342.248V67.924H334.928V63.688ZM341.276 64.492H335.912V67.12H341.276V64.492ZM345.921 64.2727V67.2727H344.983V64.2727H345.921ZM348.102 64.2727V67.2727H347.165V64.2727H348.102Z" fill="white"/>
<circle cx="60" cy="90" r="60" fill="#D740F0" fill-opacity="0.5"/>
<path d="M15.7682 80.832H16.6322V81.66C16.6322 84.024 14.4362 85.86 12.2642 86.352L11.8202 85.524C13.7282 85.164 15.7682 83.508 15.7682 81.66V80.832ZM15.9482 80.832H16.8122V81.66C16.8122 83.52 18.8642 85.164 20.7602 85.524L20.3162 86.352C18.1562 85.86 15.9482 84.036 15.9482 81.66V80.832ZM11.4242 88.656H21.2522V89.472H11.4242V88.656ZM22.8833 81.168H27.8633V88.188H22.8833V81.168ZM26.8913 81.972H23.8553V87.384H26.8913V81.972ZM29.7953 80.088H30.8033V90.936H29.7953V80.088ZM30.5633 84.42H32.5793V85.26H30.5633V84.42ZM34.7623 85.932H42.2143V86.736H34.7623V85.932ZM33.5023 88.716H43.3303V89.544H33.5023V88.716ZM34.7623 81.012H42.0943V81.828H35.7703V86.184H34.7623V81.012ZM35.4463 83.436H41.8663V84.228H35.4463V83.436ZM45.4414 80.58H53.4094V81.384H45.4414V80.58ZM45.4894 83.844H53.3614V84.648H45.4894V83.844ZM47.0854 80.952H48.0814V84.204H47.0854V80.952ZM50.7814 80.952H51.7654V84.204H50.7814V80.952ZM44.5294 85.956H54.3334V86.772H44.5294V85.956ZM48.9454 84.384H49.9294V86.46H48.9454V84.384ZM45.8014 89.88H53.2534V90.696H45.8014V89.88ZM45.8014 87.708H46.7974V90.144H45.8014V87.708ZM56.0605 80.904H56.9965V82.572H59.3125V80.904H60.2605V85.896H56.0605V80.904ZM56.9965 83.364V85.092H59.3125V83.364H56.9965ZM63.7645 80.1H64.7125V86.736H63.7645V80.1ZM62.0365 82.968H64.0885V83.796H62.0365V82.968ZM61.4365 80.304H62.3845V86.4H61.4365V80.304ZM61.1485 87C63.3805 87 64.7725 87.708 64.7725 88.956C64.7725 90.192 63.3805 90.924 61.1485 90.924C58.9045 90.924 57.5365 90.192 57.5365 88.956C57.5365 87.708 58.9045 87 61.1485 87ZM61.1485 87.768C59.5165 87.768 58.5085 88.212 58.5085 88.956C58.5085 89.712 59.5165 90.144 61.1485 90.144C62.7805 90.144 63.7765 89.712 63.7765 88.956C63.7765 88.212 62.7805 87.768 61.1485 87.768ZM71.2995 80.832H72.3315C72.3315 83.628 70.7715 85.644 67.3035 86.664L66.9195 85.86C70.0035 84.972 71.2995 83.328 71.2995 81.216V80.832ZM67.3875 80.832H71.8395V81.636H67.3875V80.832ZM71.1675 82.824V83.532L67.0155 83.844L66.8475 83.028L71.1675 82.824ZM74.5035 80.1H75.5115V86.616H74.5035V80.1ZM71.9235 86.772C74.1675 86.772 75.5715 87.54 75.5715 88.848C75.5715 90.156 74.1675 90.924 71.9235 90.924C69.6795 90.924 68.2875 90.156 68.2875 88.848C68.2875 87.54 69.6795 86.772 71.9235 86.772ZM71.9235 87.564C70.2795 87.564 69.2715 88.032 69.2715 88.848C69.2715 89.652 70.2795 90.132 71.9235 90.132C73.5675 90.132 74.5755 89.652 74.5755 88.848C74.5755 88.032 73.5675 87.564 71.9235 87.564ZM83.0706 83.76H86.0946V84.576H83.0706V83.76ZM80.4546 81.024H81.2706V82.956C81.2706 85.392 79.9866 87.72 78.2706 88.644L77.6346 87.852C79.2306 87.06 80.4546 84.972 80.4546 82.956V81.024ZM80.6466 81.024H81.4506V82.956C81.4506 84.936 82.6746 86.904 84.2466 87.648L83.6586 88.452C81.9066 87.564 80.6466 85.332 80.6466 82.956V81.024ZM85.6026 80.076H86.5866V90.948H85.6026V80.076ZM96.5697 80.076H97.5657V90.948H96.5697V80.076ZM89.3097 81H90.2937V83.868H93.4257V81H94.4217V88.332H89.3097V81ZM90.2937 84.66V87.516H93.4257V84.66H90.2937ZM104.081 80.832H104.945V81.66C104.945 84.024 102.749 85.86 100.577 86.352L100.133 85.524C102.041 85.164 104.081 83.508 104.081 81.66V80.832ZM104.261 80.832H105.125V81.66C105.125 83.52 107.177 85.164 109.073 85.524L108.629 86.352C106.469 85.86 104.261 84.036 104.261 81.66V80.832ZM99.7367 88.656H109.565V89.472H99.7367V88.656ZM25.9382 96.2727V99.2727H25.0007V96.2727H25.9382ZM28.12 96.2727V99.2727H27.1825V96.2727H28.12ZM30.0451 105V96.2727H31.1019V100.602H31.2042L35.1246 96.2727H36.5053L32.8406 100.21L36.5053 105H35.2269L32.1928 100.943L31.1019 102.17V105H30.0451ZM37.4044 100.788H47.2084V101.604H37.4044V100.788ZM38.6764 104.88H46.1284V105.696H38.6764V104.88ZM38.6764 102.552H39.6724V105.132H38.6764V102.552ZM42.3124 95.448C44.6284 95.448 46.1284 96.264 46.1284 97.62C46.1284 98.964 44.6284 99.78 42.3124 99.78C39.9844 99.78 38.4964 98.964 38.4964 97.62C38.4964 96.264 39.9844 95.448 42.3124 95.448ZM42.3124 96.264C40.6084 96.264 39.5164 96.768 39.5164 97.62C39.5164 98.472 40.6084 98.976 42.3124 98.976C44.0164 98.976 45.1084 98.472 45.1084 97.62C45.1084 96.768 44.0164 96.264 42.3124 96.264ZM56.6395 95.088H57.5875V101.952H56.6395V95.088ZM54.8755 98.028H56.9275V98.856H54.8755V98.028ZM54.3235 95.304H55.2595V101.568H54.3235V95.304ZM48.3955 96.384H53.8915V97.176H48.3955V96.384ZM51.1555 97.728C52.5115 97.728 53.4595 98.472 53.4595 99.588C53.4595 100.716 52.5115 101.448 51.1555 101.448C49.7875 101.448 48.8395 100.716 48.8395 99.588C48.8395 98.472 49.7875 97.728 51.1555 97.728ZM51.1555 98.472C50.3035 98.472 49.7275 98.916 49.7275 99.588C49.7275 100.272 50.3035 100.704 51.1555 100.704C51.9955 100.704 52.5715 100.272 52.5715 99.588C52.5715 98.916 51.9955 98.472 51.1555 98.472ZM50.6635 95.172H51.6355V96.828H50.6635V95.172ZM54.0355 102.144C56.2915 102.144 57.6475 102.816 57.6475 104.028C57.6475 105.228 56.2915 105.912 54.0355 105.912C51.7555 105.912 50.4115 105.228 50.4115 104.028C50.4115 102.816 51.7555 102.144 54.0355 102.144ZM54.0355 102.912C52.3675 102.912 51.3955 103.308 51.3955 104.028C51.3955 104.748 52.3675 105.156 54.0355 105.156C55.6795 105.156 56.6635 104.748 56.6635 104.028C56.6635 103.308 55.6795 102.912 54.0355 102.912ZM62.0625 95.676C63.4905 95.676 64.5225 96.684 64.5225 98.136C64.5225 99.6 63.4905 100.596 62.0625 100.596C60.6105 100.596 59.5905 99.6 59.5905 98.136C59.5905 96.684 60.6105 95.676 62.0625 95.676ZM62.0625 96.492C61.1625 96.492 60.5025 97.176 60.5025 98.136C60.5025 99.096 61.1625 99.78 62.0625 99.78C62.9505 99.78 63.6225 99.096 63.6225 98.136C63.6225 97.176 62.9505 96.492 62.0625 96.492ZM67.6785 95.1H68.6265V100.992H67.6785V95.1ZM65.9745 97.584H68.0145V98.4H65.9745V97.584ZM65.3505 95.304H66.2985V100.92H65.3505V95.304ZM61.5225 101.496H62.5065V102.78H67.6665V101.496H68.6265V105.792H61.5225V101.496ZM62.5065 103.572V104.976H67.6665V103.572H62.5065ZM70.5216 100.836H80.3256V101.64H70.5216V100.836ZM74.9256 99.432H75.9096V101.172H74.9256V99.432ZM71.8176 98.988H79.1736V99.768H71.8176V98.988ZM71.8176 95.4H79.1256V96.18H72.8016V99.408H71.8176V95.4ZM72.5136 97.176H78.8376V97.944H72.5136V97.176ZM75.4176 102.444C77.7816 102.444 79.1376 103.044 79.1376 104.184C79.1376 105.312 77.7816 105.912 75.4176 105.912C73.0536 105.912 71.6976 105.312 71.6976 104.184C71.6976 103.044 73.0536 102.444 75.4176 102.444ZM75.4176 103.2C73.6776 103.2 72.7056 103.548 72.7056 104.184C72.7056 104.832 73.6776 105.168 75.4176 105.168C77.1576 105.168 78.1296 104.832 78.1296 104.184C78.1296 103.548 77.1576 103.2 75.4176 103.2ZM84.2367 96.252H85.0527V97.128C85.0527 99.12 83.8527 100.788 82.0287 101.448L81.5247 100.656C83.1567 100.08 84.2367 98.676 84.2367 97.128V96.252ZM84.4167 96.252H85.2327V97.116C85.2327 98.532 86.2647 99.804 87.8607 100.332L87.3807 101.112C85.5687 100.512 84.4167 98.964 84.4167 97.116V96.252ZM81.8247 95.892H87.6207V96.708H81.8247V95.892ZM88.9887 95.088H89.9847V101.628H88.9887V95.088ZM89.7087 97.836H91.5927V98.676H89.7087V97.836ZM86.5287 101.916C88.7367 101.916 90.0927 102.648 90.0927 103.908C90.0927 105.18 88.7367 105.912 86.5287 105.912C84.3207 105.912 82.9647 105.18 82.9647 103.908C82.9647 102.648 84.3207 101.916 86.5287 101.916ZM86.5287 102.72C84.9207 102.72 83.9367 103.152 83.9367 103.908C83.9367 104.676 84.9207 105.132 86.5287 105.132C88.1367 105.132 89.1207 104.676 89.1207 103.908C89.1207 103.152 88.1367 102.72 86.5287 102.72ZM93.8015 96.2727V99.2727H92.864V96.2727H93.8015ZM95.9833 96.2727V99.2727H95.0458V96.2727H95.9833Z" fill="white"/>
<circle cx="60" cy="280" r="60" fill="#5EBDDB" fill-opacity="0.7"/>
<path d="M15.7682 275.832H16.6322V276.66C16.6322 279.024 14.4362 280.86 12.2642 281.352L11.8202 280.524C13.7282 280.164 15.7682 278.508 15.7682 276.66V275.832ZM15.9482 275.832H16.8122V276.66C16.8122 278.52 18.8642 280.164 20.7602 280.524L20.3162 281.352C18.1562 280.86 15.9482 279.036 15.9482 276.66V275.832ZM11.4242 283.656H21.2522V284.472H11.4242V283.656ZM22.8833 276.168H27.8633V283.188H22.8833V276.168ZM26.8913 276.972H23.8553V282.384H26.8913V276.972ZM29.7953 275.088H30.8033V285.936H29.7953V275.088ZM30.5633 279.42H32.5793V280.26H30.5633V279.42ZM34.7623 280.932H42.2143V281.736H34.7623V280.932ZM33.5023 283.716H43.3303V284.544H33.5023V283.716ZM34.7623 276.012H42.0943V276.828H35.7703V281.184H34.7623V276.012ZM35.4463 278.436H41.8663V279.228H35.4463V278.436ZM45.4414 275.58H53.4094V276.384H45.4414V275.58ZM45.4894 278.844H53.3614V279.648H45.4894V278.844ZM47.0854 275.952H48.0814V279.204H47.0854V275.952ZM50.7814 275.952H51.7654V279.204H50.7814V275.952ZM44.5294 280.956H54.3334V281.772H44.5294V280.956ZM48.9454 279.384H49.9294V281.46H48.9454V279.384ZM45.8014 284.88H53.2534V285.696H45.8014V284.88ZM45.8014 282.708H46.7974V285.144H45.8014V282.708ZM63.4765 275.088H64.4725V285.936H63.4765V275.088ZM60.2965 276.252H61.2805C61.2805 279.396 59.8645 282.144 56.2405 283.92L55.7125 283.116C58.8445 281.604 60.2965 279.3 60.2965 276.42V276.252ZM56.2045 276.252H60.7285V277.068H56.2045V276.252ZM74.0355 275.1H75.0315V283.056H74.0355V275.1ZM74.7195 278.376H76.6395V279.204H74.7195V278.376ZM68.2755 284.88H75.5235V285.696H68.2755V284.88ZM68.2755 282.288H69.2715V285.072H68.2755V282.288ZM67.0635 275.868H68.0475V277.68H71.1075V275.868H72.0795V281.244H67.0635V275.868ZM68.0475 278.46V280.44H71.1075V278.46H68.0475ZM80.3226 281.292H81.3066V284.184H80.3226V281.292ZM83.8266 281.292H84.8106V284.184H83.8266V281.292ZM77.6586 283.728H87.4866V284.556H77.6586V283.728ZM82.0026 275.796H82.8666V276.624C82.8666 278.904 80.6346 280.62 78.4266 281.052L78.0066 280.236C79.9386 279.912 82.0026 278.388 82.0026 276.624V275.796ZM82.1826 275.796H83.0466V276.624C83.0466 278.388 85.1106 279.912 87.0426 280.236L86.6346 281.052C84.4146 280.62 82.1826 278.904 82.1826 276.624V275.796ZM89.1777 276.012H94.9977V276.84H89.1777V276.012ZM88.9977 280.968L88.8777 280.128C90.7377 280.128 93.3537 280.104 95.5137 279.828L95.5977 280.56C93.3897 280.932 90.8217 280.968 88.9977 280.968ZM90.2457 276.588H91.2057V280.512H90.2457V276.588ZM92.9577 276.588H93.9297V280.512H92.9577V276.588ZM96.5817 275.1H97.5897V281.736H96.5817V275.1ZM94.0137 281.976C96.2697 281.976 97.6617 282.696 97.6617 283.932C97.6617 285.192 96.2697 285.912 94.0137 285.912C91.7457 285.912 90.3777 285.192 90.3777 283.932C90.3777 282.696 91.7457 281.976 94.0137 281.976ZM94.0137 282.756C92.3577 282.756 91.3617 283.2 91.3617 283.932C91.3617 284.7 92.3577 285.132 94.0137 285.132C95.6697 285.132 96.6657 284.7 96.6657 283.932C96.6657 283.2 95.6697 282.756 94.0137 282.756ZM99.7247 279.816H109.529V280.62H99.7247V279.816ZM104.129 278.436H105.113V280.092H104.129V278.436ZM100.997 275.448H108.257V278.748H100.997V275.448ZM107.285 276.24H101.981V277.956H107.285V276.24ZM100.913 281.52H108.281V283.956H101.921V285.276H100.937V283.236H107.297V282.288H100.913V281.52ZM100.937 285.036H108.605V285.816H100.937V285.036ZM33.7185 290.796H40.4985V291.6H33.7185V290.796ZM32.4945 295.452H42.2985V296.268H32.4945V295.452ZM36.8745 295.992H37.8705V300.948H36.8745V295.992ZM40.0305 290.796H41.0025V291.732C41.0025 292.86 41.0025 294.132 40.5945 295.968L39.6105 295.836C40.0305 294.084 40.0305 292.824 40.0305 291.732V290.796ZM47.9376 296.124H48.9216V297.828H47.9376V296.124ZM43.5216 295.548H53.3256V296.352H43.5216V295.548ZM44.6136 297.576H52.1136V300.9H51.1176V298.392H44.6136V297.576ZM47.9376 290.028H48.9216V291.54H47.9376V290.028ZM47.8896 291.672H48.7656V291.852C48.7656 293.64 46.7856 294.684 44.4216 294.936L44.1096 294.18C46.2096 293.988 47.8896 293.1 47.8896 291.852V291.672ZM48.0936 291.672H48.9696V291.852C48.9696 293.1 50.6496 293.988 52.7496 294.18L52.4376 294.936C50.0616 294.684 48.0936 293.64 48.0936 291.852V291.672ZM44.5296 291.144H52.3296V291.948H44.5296V291.144ZM59.1374 291.273V294.273H58.1999V291.273H59.1374ZM61.3192 291.273V294.273H60.3817V291.273H61.3192ZM70.8995 291.624H72.7835V292.452H70.8995V291.624ZM70.8995 294H72.7835V294.828H70.8995V294ZM70.2035 290.088H71.1995V296.352H70.2035V290.088ZM64.3835 296.88H71.1995V300.792H64.3835V296.88ZM70.2275 297.672H65.3555V299.988H70.2275V297.672ZM65.8115 290.724C67.4435 290.724 68.6435 291.78 68.6435 293.292C68.6435 294.792 67.4435 295.836 65.8115 295.836C64.1795 295.836 62.9795 294.792 62.9795 293.292C62.9795 291.78 64.1795 290.724 65.8115 290.724ZM65.8115 291.564C64.7315 291.564 63.9515 292.272 63.9515 293.292C63.9515 294.312 64.7315 295.008 65.8115 295.008C66.8915 295.008 67.6715 294.312 67.6715 293.292C67.6715 292.272 66.8915 291.564 65.8115 291.564ZM78.2426 294.372H80.2946V295.188H78.2426V294.372ZM76.0346 292.86H76.8026V293.424C76.8026 295.584 75.9026 297.768 74.3186 298.716L73.7306 297.96C75.1946 297.108 76.0346 295.2 76.0346 293.424V292.86ZM76.2146 292.86H76.9826V293.424C76.9826 295.152 77.8466 296.94 79.3106 297.732L78.7466 298.476C77.1506 297.588 76.2146 295.536 76.2146 293.424V292.86ZM74.0306 292.08H78.9866V292.908H74.0306V292.08ZM76.0346 290.472H76.9946V292.716H76.0346V290.472ZM82.0706 290.088H83.0306V300.936H82.0706V290.088ZM79.8986 290.34H80.8346V300.384H79.8986V290.34ZM86.0554 291.273V294.273H85.1179V291.273H86.0554ZM88.2372 291.273V294.273H87.2997V291.273H88.2372Z" fill="white"/>
<circle cx="329" cy="239" r="60" fill="#F2E916" fill-opacity="0.7"/>
<path d="M283.756 237.728H293.584V238.556H283.756V237.728ZM288.148 234.92H289.144V237.956H288.148V234.92ZM284.896 229.988H292.384V235.1H284.896V229.988ZM291.424 230.792H285.868V234.296H291.424V230.792ZM302.127 229.088H303.135V239.936H302.127V229.088ZM302.895 233.348H304.911V234.2H302.895V233.348ZM295.215 230H296.199V232.868H299.295V230H300.279V237.332H295.215V230ZM296.199 233.66V236.516H299.295V233.66H296.199ZM308.87 229.484C310.49 229.484 311.678 230.468 311.678 231.896C311.678 233.312 310.49 234.296 308.87 234.296C307.262 234.296 306.074 233.312 306.074 231.896C306.074 230.468 307.262 229.484 308.87 229.484ZM308.87 230.3C307.826 230.3 307.034 230.96 307.034 231.896C307.034 232.832 307.826 233.48 308.87 233.48C309.926 233.48 310.706 232.832 310.706 231.896C310.706 230.96 309.926 230.3 308.87 230.3ZM313.718 229.088H314.726V234.644H313.718V229.088ZM307.706 235.172H314.726V237.812H308.702V239.444H307.73V237.068H313.742V235.976H307.706V235.172ZM307.73 239H315.086V239.792H307.73V239ZM322.621 232.076H325.357V232.892H322.621V232.076ZM324.793 229.1H325.789V237.044H324.793V229.1ZM318.865 238.88H326.089V239.696H318.865V238.88ZM318.865 236.348H319.861V239.3H318.865V236.348ZM319.633 230.444H320.449V231.32C320.449 233.288 319.225 234.992 317.413 235.664L316.897 234.872C318.517 234.296 319.633 232.856 319.633 231.32V230.444ZM319.825 230.444H320.629V231.308C320.629 232.712 321.685 234.08 323.257 234.632L322.753 235.412C320.989 234.776 319.825 233.144 319.825 231.308V230.444ZM317.209 229.976H323.005V230.78H317.209V229.976ZM330.325 232.76H331.309V234.812H330.325V232.76ZM334.309 232.76H335.293V234.812H334.309V232.76ZM327.901 234.452H337.705V235.256H327.901V234.452ZM332.797 236.072C335.125 236.072 336.517 236.756 336.517 237.992C336.517 239.228 335.125 239.924 332.797 239.924C330.469 239.924 329.076 239.228 329.076 237.992C329.076 236.756 330.469 236.072 332.797 236.072ZM332.797 236.84C331.105 236.84 330.085 237.26 330.085 237.992C330.085 238.736 331.105 239.144 332.797 239.144C334.501 239.144 335.509 238.736 335.509 237.992C335.509 237.26 334.501 236.84 332.797 236.84ZM332.809 229.28C335.161 229.28 336.625 230.036 336.625 231.308C336.625 232.568 335.161 233.312 332.809 233.312C330.445 233.312 328.993 232.568 328.993 231.308C328.993 230.036 330.445 229.28 332.809 229.28ZM332.809 230.06C331.081 230.06 330.013 230.516 330.013 231.308C330.013 232.088 331.081 232.544 332.809 232.544C334.537 232.544 335.605 232.088 335.605 231.308C335.605 230.516 334.537 230.06 332.809 230.06ZM347.739 232.76H350.763V233.576H347.739V232.76ZM345.123 230.024H345.939V231.956C345.939 234.392 344.655 236.72 342.939 237.644L342.303 236.852C343.899 236.06 345.123 233.972 345.123 231.956V230.024ZM345.315 230.024H346.119V231.956C346.119 233.936 347.343 235.904 348.915 236.648L348.327 237.452C346.575 236.564 345.315 234.332 345.315 231.956V230.024ZM350.271 229.076H351.255V239.948H350.271V229.076ZM361.238 229.076H362.234V239.948H361.238V229.076ZM353.978 230H354.962V232.868H358.094V230H359.09V237.332H353.978V230ZM354.962 233.66V236.516H358.094V233.66H354.962ZM368.749 229.832H369.613V230.66C369.613 233.024 367.417 234.86 365.245 235.352L364.801 234.524C366.709 234.164 368.749 232.508 368.749 230.66V229.832ZM368.929 229.832H369.793V230.66C369.793 232.52 371.845 234.164 373.741 234.524L373.297 235.352C371.137 234.86 368.929 233.036 368.929 230.66V229.832ZM364.405 237.656H374.233V238.472H364.405V237.656ZM301.004 244.088H302V254.936H301.004V244.088ZM297.824 245.252H298.808C298.808 248.396 297.392 251.144 293.768 252.92L293.24 252.116C296.372 250.604 297.824 248.3 297.824 245.42V245.252ZM293.732 245.252H298.256V246.068H293.732V245.252ZM304.543 245.072H310.891V245.816H304.543V245.072ZM307.723 246.236C309.283 246.236 310.303 246.86 310.303 247.844C310.303 248.84 309.283 249.464 307.723 249.464C306.175 249.464 305.155 248.84 305.155 247.844C305.155 246.86 306.175 246.236 307.723 246.236ZM307.723 246.932C306.751 246.932 306.091 247.28 306.091 247.844C306.091 248.396 306.751 248.768 307.723 248.768C308.719 248.768 309.355 248.396 309.355 247.844C309.355 247.28 308.719 246.932 307.723 246.932ZM307.219 244.016H308.227V245.468H307.219V244.016ZM307.219 249.068H308.227V250.544H307.219V249.068ZM312.019 244.1H313.015V251.36H312.019V244.1ZM305.743 251.864H313.015V254.936H312.019V252.656H305.743V251.864ZM304.327 251.024L304.195 250.22C306.187 250.22 308.875 250.208 311.155 249.896L311.227 250.592C308.863 250.988 306.283 251.024 304.327 251.024ZM323.745 246.08H326.649V246.896H323.745V246.08ZM323.649 248.336H326.577V249.152H323.649V248.336ZM326.481 244.088H327.477V250.592H326.481V244.088ZM323.085 244.904H324.153C324.153 247.7 322.221 249.656 319.101 250.592L318.693 249.788C321.465 248.984 323.085 247.388 323.085 245.336V244.904ZM319.257 244.904H323.769V245.72H319.257V244.904ZM323.949 250.712C326.145 250.712 327.537 251.492 327.537 252.8C327.537 254.108 326.145 254.888 323.949 254.888C321.753 254.888 320.361 254.108 320.361 252.8C320.361 251.492 321.753 250.712 323.949 250.712ZM323.949 251.492C322.365 251.492 321.345 251.984 321.345 252.8C321.345 253.616 322.365 254.096 323.949 254.096C325.545 254.096 326.565 253.616 326.565 252.8C326.565 251.984 325.545 251.492 323.949 251.492ZM337.52 244.088H338.516V250.652H337.52V244.088ZM335.72 247.376H337.964V248.204H335.72V247.376ZM331.484 251.228H338.516V254.792H331.484V251.228ZM337.544 252.032H332.456V253.988H337.544V252.032ZM329.612 245.216H335.888V246.02H329.612V245.216ZM332.744 246.572C334.208 246.572 335.252 247.364 335.252 248.516C335.252 249.668 334.208 250.436 332.744 250.436C331.28 250.436 330.236 249.668 330.236 248.516C330.236 247.364 331.28 246.572 332.744 246.572ZM332.744 247.34C331.832 247.34 331.184 247.808 331.184 248.516C331.184 249.212 331.832 249.68 332.744 249.68C333.656 249.68 334.304 249.212 334.304 248.516C334.304 247.808 333.656 247.34 332.744 247.34ZM332.252 243.98H333.248V245.792H332.252V243.98ZM344.002 249.368H353.806V250.184H344.002V249.368ZM344.914 244.496H352.882V245.3H344.914V244.496ZM344.962 247.556H352.834V248.372H344.962V247.556ZM346.558 244.844H347.554V248.108H346.558V244.844ZM350.254 244.844H351.238V248.108H350.254V244.844ZM348.898 251.204C351.226 251.204 352.606 251.864 352.606 253.064C352.606 254.252 351.226 254.912 348.898 254.912C346.57 254.912 345.19 254.252 345.19 253.064C345.19 251.864 346.57 251.204 348.898 251.204ZM348.898 251.972C347.194 251.972 346.198 252.368 346.198 253.064C346.198 253.76 347.194 254.156 348.898 254.156C350.602 254.156 351.598 253.76 351.598 253.064C351.598 252.368 350.602 251.972 348.898 251.972ZM348.418 249.74H349.402V251.516H348.418V249.74ZM355.041 250.508H364.881V251.324H355.041V250.508ZM359.433 250.892H360.417V254.936H359.433V250.892ZM356.277 244.52H357.273V246.008H362.637V244.52H363.621V249.212H356.277V244.52ZM357.273 246.812V248.408H362.637V246.812H357.273Z" fill="white"/>
</svg>
