<svg width="300" height="300" viewBox="0 0 300 300" fill="none" xmlns="http://www.w3.org/2000/svg">
<circle cx="150" cy="150" r="150" fill="white" fill-opacity="0.95"/>
<path d="M119.548 21.528H120.5V23.796C120.5 26.708 118.932 29.41 116.86 30.46L116.146 29.508C118.022 28.612 119.548 26.19 119.548 23.796V21.528ZM119.744 21.528H120.696V23.796C120.696 26.106 122.208 28.43 124.084 29.298L123.384 30.222C121.326 29.214 119.744 26.61 119.744 23.796V21.528ZM125.4 20.422H126.562V33.106H125.4V20.422ZM134.163 21.304H135.171V22.27C135.171 25.028 132.609 27.17 130.075 27.744L129.557 26.778C131.783 26.358 134.163 24.426 134.163 22.27V21.304ZM134.373 21.304H135.381V22.27C135.381 24.44 137.775 26.358 139.987 26.778L139.469 27.744C136.949 27.17 134.373 25.042 134.373 22.27V21.304ZM129.095 30.432H140.561V31.384H129.095V30.432ZM147.405 23.614H149.561V24.566H147.405V23.614ZM142.547 26.344H143.345C145.319 26.344 146.495 26.302 147.895 26.022L148.007 26.946C146.551 27.24 145.361 27.282 143.345 27.282H142.547V26.344ZM142.547 21.262H147.321V22.2H143.667V26.904H142.547V21.262ZM143.317 23.74H146.817V24.664H143.317V23.74ZM151.521 20.436H152.627V28.052H151.521V20.436ZM149.085 20.646H150.177V27.926H149.085V20.646ZM144.325 28.654H152.627V32.924H144.325V28.654ZM151.507 29.578H145.459V31.986H151.507V29.578ZM164.456 20.436H165.576V33.092H164.456V20.436ZM162.412 25.518H164.834V26.47H162.412V25.518ZM159.136 22.06H160.256C160.256 25.322 159.136 28.346 155.524 30.376L154.838 29.55C158.016 27.772 159.136 25.21 159.136 22.284V22.06ZM155.328 22.06H159.528V23.026H155.328V22.06ZM161.642 20.772H162.748V32.476H161.642V20.772ZM168.249 20.954H169.397V22.774H172.967V20.954H174.101V26.484H168.249V20.954ZM169.397 23.684V25.546H172.967V23.684H169.397ZM176.383 20.436H177.545V26.96H176.383V20.436ZM177.041 23.152H179.407V24.118H177.041V23.152ZM169.509 27.576H177.545V30.642H170.685V32.546H169.537V29.774H176.411V28.5H169.509V27.576ZM169.537 32.028H178.007V32.952H169.537V32.028ZM187.642 21.528H188.594V23.796C188.594 26.596 187.082 29.326 185.08 30.39L184.366 29.466C186.2 28.542 187.642 26.106 187.642 23.796V21.528ZM187.852 21.528H188.79V23.796C188.79 26.022 190.204 28.332 191.996 29.228L191.282 30.152C189.322 29.102 187.852 26.512 187.852 23.796V21.528ZM193.102 20.436H194.278V33.092H193.102V20.436ZM193.998 25.56H196.35V26.54H193.998V25.56ZM203.783 23.446H207.185V24.412H203.783V23.446ZM200.871 21.01C202.761 21.01 204.133 22.214 204.133 23.95C204.133 25.686 202.761 26.876 200.871 26.876C198.981 26.876 197.609 25.686 197.609 23.95C197.609 22.214 198.981 21.01 200.871 21.01ZM200.871 21.99C199.625 21.99 198.729 22.788 198.729 23.95C198.729 25.098 199.625 25.91 200.871 25.91C202.117 25.91 203.013 25.098 203.013 23.95C203.013 22.788 202.117 21.99 200.871 21.99ZM206.667 20.436H207.829V27.226H206.667V20.436ZM199.723 27.856H200.885V29.452H206.681V27.856H207.829V32.924H199.723V27.856ZM200.885 30.376V31.986H206.681V30.376H200.885ZM214.407 21.346C216.381 21.346 217.795 22.564 217.795 24.328C217.795 26.106 216.381 27.324 214.407 27.324C212.433 27.324 211.005 26.106 211.005 24.328C211.005 22.564 212.433 21.346 214.407 21.346ZM214.407 22.354C213.091 22.354 212.139 23.152 212.139 24.328C212.139 25.504 213.091 26.316 214.407 26.316C215.709 26.316 216.661 25.504 216.661 24.328C216.661 23.152 215.709 22.354 214.407 22.354ZM219.447 20.422H220.609V33.106H219.447V20.422ZM210.529 30.334L210.361 29.368C212.671 29.368 215.863 29.354 218.621 28.92L218.719 29.774C215.877 30.32 212.783 30.334 210.529 30.334ZM140.672 44.296H141.806V46.2H140.672V44.296ZM135.52 43.68H146.958V44.618H135.52V43.68ZM140.672 37.394H141.82V39.102H140.672V37.394ZM140.616 39.242H141.638V39.452C141.638 41.524 139.314 42.728 136.542 43.008L136.192 42.112C138.642 41.902 140.616 40.894 140.616 39.452V39.242ZM140.854 39.242H141.876V39.452C141.876 40.894 143.85 41.902 146.3 42.112L145.95 43.008C143.178 42.728 140.854 41.524 140.854 39.452V39.242ZM136.696 38.668H145.796V39.592H136.696V38.668ZM141.232 45.878C143.962 45.878 145.572 46.62 145.572 47.978C145.572 49.336 143.962 50.064 141.232 50.064C138.502 50.064 136.892 49.336 136.892 47.978C136.892 46.62 138.502 45.878 141.232 45.878ZM141.232 46.76C139.23 46.76 138.068 47.18 138.068 47.978C138.068 48.748 139.23 49.182 141.232 49.182C143.234 49.182 144.396 48.748 144.396 47.978C144.396 47.18 143.234 46.76 141.232 46.76ZM148.399 44.114H159.865V45.066H148.399V44.114ZM153.635 44.59H154.797V47.502H153.635V44.59ZM149.855 48.86H158.591V49.812H149.855V48.86ZM149.855 46.382H151.003V49.224H149.855V46.382ZM149.925 37.828H151.073V39.438H157.191V37.828H158.353V42.896H149.925V37.828ZM151.073 40.348V41.958H157.191V40.348H151.073ZM169.944 37.45H171.106V46.942H169.944V37.45ZM170.742 41.594H172.982V42.574H170.742V41.594ZM161.32 38.976H168.796V39.914H161.32V38.976ZM165.058 40.614C166.85 40.614 168.082 41.552 168.082 42.98C168.082 44.394 166.85 45.332 165.058 45.332C163.252 45.332 162.02 44.394 162.02 42.98C162.02 41.552 163.252 40.614 165.058 40.614ZM165.058 41.524C163.91 41.524 163.126 42.098 163.126 42.98C163.126 43.848 163.91 44.422 165.058 44.422C166.192 44.422 166.976 43.848 166.976 42.98C166.976 42.098 166.192 41.524 165.058 41.524ZM164.47 37.436H165.632V39.466H164.47V37.436ZM163.224 48.86H171.68V49.812H163.224V48.86ZM163.224 46.186H164.386V49.266H163.224V46.186ZM184.156 39.76H187.544V40.712H184.156V39.76ZM184.044 42.392H187.46V43.344H184.044V42.392ZM187.348 37.436H188.51V45.024H187.348V37.436ZM183.386 38.388H184.632C184.632 41.65 182.378 43.932 178.738 45.024L178.262 44.086C181.496 43.148 183.386 41.286 183.386 38.892V38.388ZM178.92 38.388H184.184V39.34H178.92V38.388ZM184.394 45.164C186.956 45.164 188.58 46.074 188.58 47.6C188.58 49.126 186.956 50.036 184.394 50.036C181.832 50.036 180.208 49.126 180.208 47.6C180.208 46.074 181.832 45.164 184.394 45.164ZM184.394 46.074C182.546 46.074 181.356 46.648 181.356 47.6C181.356 48.552 182.546 49.112 184.394 49.112C186.256 49.112 187.446 48.552 187.446 47.6C187.446 46.648 186.256 46.074 184.394 46.074ZM200.227 37.436H201.389V45.094H200.227V37.436ZM198.127 41.272H200.745V42.238H198.127V41.272ZM193.185 45.766H201.389V49.924H193.185V45.766ZM200.255 46.704H194.319V48.986H200.255V46.704ZM191.001 38.752H198.323V39.69H191.001V38.752ZM194.655 40.334C196.363 40.334 197.581 41.258 197.581 42.602C197.581 43.946 196.363 44.842 194.655 44.842C192.947 44.842 191.729 43.946 191.729 42.602C191.729 41.258 192.947 40.334 194.655 40.334ZM194.655 41.23C193.591 41.23 192.835 41.776 192.835 42.602C192.835 43.414 193.591 43.96 194.655 43.96C195.719 43.96 196.475 43.414 196.475 42.602C196.475 41.776 195.719 41.23 194.655 41.23ZM194.081 37.31H195.243V39.424H194.081V37.31Z" fill="#A29A9A"/>
<circle cx="191" cy="115" r="60" fill="#72EB7F" fill-opacity="0.7"/>
<path d="M159.209 103.1H160.217V111.02H159.209V103.1ZM153.245 112.88H160.541V113.696H153.245V112.88ZM153.245 110.204H154.229V113.156H153.245V110.204ZM154.397 103.844C156.017 103.844 157.217 104.948 157.217 106.52C157.217 108.08 156.017 109.196 154.397 109.196C152.777 109.196 151.565 108.08 151.565 106.52C151.565 104.948 152.777 103.844 154.397 103.844ZM154.397 104.708C153.341 104.708 152.537 105.452 152.537 106.52C152.537 107.576 153.341 108.32 154.397 108.32C155.453 108.32 156.257 107.576 156.257 106.52C156.257 105.452 155.453 104.708 154.397 104.708ZM170.308 103.076H171.292V113.948H170.308V103.076ZM168.052 107.168H170.452V107.996H168.052V107.168ZM162.856 110.516H163.684C165.724 110.516 167.008 110.48 168.532 110.192L168.628 111.008C167.068 111.284 165.748 111.344 163.684 111.344H162.856V110.516ZM162.856 104.072H167.872V104.9H163.84V110.804H162.856V104.072ZM163.588 107.12H167.404V107.924H163.588V107.12ZM177.159 105.56H179.955V106.376H177.159V105.56ZM173.967 104.072H174.963V108.584H173.967V104.072ZM173.967 108.26H174.651C175.863 108.26 177.051 108.188 178.431 107.9L178.539 108.728C177.111 109.028 175.923 109.088 174.651 109.088H173.967V108.26ZM181.635 103.088H182.583V110.444H181.635V103.088ZM179.463 103.304H180.399V109.46H179.463V103.304ZM178.455 109.88H179.307V110.276C179.307 112.172 177.351 113.528 175.155 113.9L174.783 113.12C176.703 112.832 178.455 111.668 178.455 110.276V109.88ZM178.599 109.88H179.451V110.276C179.451 111.668 181.203 112.832 183.123 113.12L182.751 113.9C180.567 113.528 178.599 112.172 178.599 110.276V109.88ZM187.847 103.864L185.035 114.312H184.115L186.927 103.864H187.847ZM196.603 103.1H197.611V111.02H196.603V103.1ZM190.639 112.88H197.935V113.696H190.639V112.88ZM190.639 110.204H191.623V113.156H190.639V110.204ZM191.791 103.844C193.411 103.844 194.611 104.948 194.611 106.52C194.611 108.08 193.411 109.196 191.791 109.196C190.171 109.196 188.959 108.08 188.959 106.52C188.959 104.948 190.171 103.844 191.791 103.844ZM191.791 104.708C190.735 104.708 189.931 105.452 189.931 106.52C189.931 107.576 190.735 108.32 191.791 108.32C192.847 108.32 193.651 107.576 193.651 106.52C193.651 105.452 192.847 104.708 191.791 104.708ZM201.018 108.932H208.47V109.736H201.018V108.932ZM199.758 111.716H209.586V112.544H199.758V111.716ZM201.018 104.012H208.35V104.828H202.026V109.184H201.018V104.012ZM201.702 106.436H208.122V107.228H201.702V106.436ZM218.141 103.076H219.137V113.948H218.141V103.076ZM218.897 107.396H220.913V108.236H218.897V107.396ZM211.229 110.504H212.093C214.133 110.504 215.549 110.432 217.193 110.12L217.301 110.948C215.609 111.248 214.169 111.332 212.093 111.332H211.229V110.504ZM211.205 104.096H216.113V107.984H212.213V110.84H211.229V107.168H215.129V104.912H211.205V104.096ZM225.592 105.56H228.388V106.376H225.592V105.56ZM222.4 104.072H223.396V108.584H222.4V104.072ZM222.4 108.26H223.084C224.296 108.26 225.484 108.188 226.864 107.9L226.972 108.728C225.544 109.028 224.356 109.088 223.084 109.088H222.4V108.26ZM230.068 103.088H231.016V110.444H230.068V103.088ZM227.896 103.304H228.832V109.46H227.896V103.304ZM226.888 109.88H227.74V110.276C227.74 112.172 225.784 113.528 223.588 113.9L223.216 113.12C225.136 112.832 226.888 111.668 226.888 110.276V109.88ZM227.032 109.88H227.884V110.276C227.884 111.668 229.636 112.832 231.556 113.12L231.184 113.9C229 113.528 227.032 112.172 227.032 110.276V109.88ZM171.246 118.796H178.026V119.6H171.246V118.796ZM170.022 123.452H179.826V124.268H170.022V123.452ZM174.402 123.992H175.398V128.948H174.402V123.992ZM177.558 118.796H178.53V119.732C178.53 120.86 178.53 122.132 178.122 123.968L177.138 123.836C177.558 122.084 177.558 120.824 177.558 119.732V118.796ZM185.465 124.124H186.449V125.828H185.465V124.124ZM181.049 123.548H190.853V124.352H181.049V123.548ZM182.141 125.576H189.641V128.9H188.645V126.392H182.141V125.576ZM185.465 118.028H186.449V119.54H185.465V118.028ZM185.417 119.672H186.293V119.852C186.293 121.64 184.313 122.684 181.949 122.936L181.637 122.18C183.737 121.988 185.417 121.1 185.417 119.852V119.672ZM185.621 119.672H186.497V119.852C186.497 121.1 188.177 121.988 190.277 122.18L189.965 122.936C187.589 122.684 185.621 121.64 185.621 119.852V119.672ZM182.057 119.144H189.857V119.948H182.057V119.144ZM194.752 119.024H195.568V120.968C195.568 123.368 194.272 125.708 192.556 126.62L191.944 125.828C193.516 125.036 194.752 122.948 194.752 120.968V119.024ZM194.932 119.024H195.736V120.968C195.736 122.876 196.948 124.856 198.484 125.624L197.872 126.416C196.192 125.516 194.932 123.296 194.932 120.968V119.024ZM199.432 118.088H200.44V128.936H199.432V118.088ZM200.2 122.48H202.216V123.32H200.2V122.48ZM208.587 120.668H211.503V121.496H208.587V120.668ZM206.091 118.58C207.711 118.58 208.887 119.612 208.887 121.1C208.887 122.588 207.711 123.608 206.091 123.608C204.471 123.608 203.295 122.588 203.295 121.1C203.295 119.612 204.471 118.58 206.091 118.58ZM206.091 119.42C205.023 119.42 204.255 120.104 204.255 121.1C204.255 122.084 205.023 122.78 206.091 122.78C207.159 122.78 207.927 122.084 207.927 121.1C207.927 120.104 207.159 119.42 206.091 119.42ZM211.059 118.088H212.055V123.908H211.059V118.088ZM205.107 124.448H206.103V125.816H211.071V124.448H212.055V128.792H205.107V124.448ZM206.103 126.608V127.988H211.071V126.608H206.103Z" fill="white"/>
<circle cx="85" cy="91" r="60" fill="#D740F0" fill-opacity="0.5"/>
<path d="M35.8148 81.652H42.7988V82.468H35.8148V81.652ZM34.5668 85.648H44.3948V86.464H34.5668V85.648ZM42.1508 81.652H43.1228V82.456C43.1228 83.38 43.1228 84.436 42.7628 85.936L41.7908 85.888C42.1508 84.4 42.1508 83.356 42.1508 82.456V81.652ZM35.7668 87.94H43.1588V91.792H35.7668V87.94ZM42.1868 88.732H36.7388V90.988H42.1868V88.732ZM48.0659 86.56H49.0619V88.708H48.0659V86.56ZM51.9659 86.56H52.9619V88.708H51.9659V86.56ZM45.5939 86.164H55.3979V86.968H45.5939V86.164ZM50.4899 88.072C52.8179 88.072 54.2099 88.768 54.2099 90.004C54.2099 91.228 52.8179 91.924 50.4899 91.924C48.1619 91.924 46.7699 91.228 46.7699 90.004C46.7699 88.768 48.1619 88.072 50.4899 88.072ZM50.4899 88.852C48.7979 88.852 47.7779 89.272 47.7779 90.004C47.7779 90.736 48.7979 91.144 50.4899 91.144C52.1939 91.144 53.2019 90.736 53.2019 90.004C53.2019 89.272 52.1939 88.852 50.4899 88.852ZM50.5019 81.304C52.8539 81.304 54.3179 82.06 54.3179 83.332C54.3179 84.604 52.8539 85.36 50.5019 85.36C48.1379 85.36 46.6859 84.604 46.6859 83.332C46.6859 82.06 48.1379 81.304 50.5019 81.304ZM50.5019 82.084C48.7739 82.084 47.7059 82.54 47.7059 83.332C47.7059 84.124 48.7739 84.58 50.5019 84.58C52.2179 84.58 53.2979 84.124 53.2979 83.332C53.2979 82.54 52.2179 82.084 50.5019 82.084ZM59.5009 82.024H60.3169V83.968C60.3169 86.464 58.9729 88.78 57.1969 89.68L56.5849 88.864C58.1929 88.096 59.5009 86.02 59.5009 83.968V82.024ZM59.6689 82.024H60.4849V83.968C60.4849 85.948 61.7809 87.94 63.3889 88.684L62.7889 89.476C61.0249 88.612 59.6689 86.38 59.6689 83.968V82.024ZM64.5169 81.076H65.5129V91.948H64.5169V81.076ZM72.028 81.832H72.892V82.66C72.892 85.024 70.696 86.86 68.524 87.352L68.08 86.524C69.988 86.164 72.028 84.508 72.028 82.66V81.832ZM72.208 81.832H73.072V82.66C73.072 84.52 75.124 86.164 77.02 86.524L76.576 87.352C74.416 86.86 72.208 85.036 72.208 82.66V81.832ZM67.684 89.656H77.512V90.472H67.684V89.656ZM83.379 83.812H85.227V84.628H83.379V83.812ZM79.215 86.152H79.899C81.591 86.152 82.599 86.116 83.799 85.876L83.895 86.668C82.647 86.92 81.627 86.956 79.899 86.956H79.215V86.152ZM79.215 81.796H83.307V82.6H80.175V86.632H79.215V81.796ZM79.875 83.92H82.875V84.712H79.875V83.92ZM86.907 81.088H87.855V87.616H86.907V81.088ZM84.819 81.268H85.755V87.508H84.819V81.268ZM80.739 88.132H87.855V91.792H80.739V88.132ZM86.895 88.924H81.711V90.988H86.895V88.924ZM98.8851 84.076H101.621V84.892H98.8851V84.076ZM101.057 81.1H102.053V89.044H101.057V81.1ZM95.1291 90.88H102.353V91.696H95.1291V90.88ZM95.1291 88.348H96.1251V91.3H95.1291V88.348ZM95.8971 82.444H96.7131V83.32C96.7131 85.288 95.4891 86.992 93.6771 87.664L93.1611 86.872C94.7811 86.296 95.8971 84.856 95.8971 83.32V82.444ZM96.0891 82.444H96.8931V83.308C96.8931 84.712 97.9491 86.08 99.5211 86.632L99.0171 87.412C97.2531 86.776 96.0891 85.144 96.0891 83.308V82.444ZM93.4731 81.976H99.2691V82.78H93.4731V81.976ZM104.164 86.632H113.992V87.448H104.164V86.632ZM108.652 87.136H109.648V89.632H108.652V87.136ZM105.424 81.592H112.72V85.408H105.424V81.592ZM111.736 82.396H106.396V84.604H111.736V82.396ZM105.412 90.88H112.9V91.696H105.412V90.88ZM105.412 88.588H106.396V91.168H105.412V88.588ZM123.82 84.4545C123.769 84.0227 123.561 83.6875 123.198 83.4489C122.834 83.2102 122.388 83.0909 121.86 83.0909C121.473 83.0909 121.135 83.1534 120.845 83.2784C120.558 83.4034 120.334 83.5753 120.172 83.794C120.013 84.0128 119.933 84.2614 119.933 84.5398C119.933 84.7727 119.989 84.973 120.1 85.1406C120.213 85.3054 120.358 85.4432 120.534 85.554C120.71 85.6619 120.895 85.7514 121.088 85.8224C121.281 85.8906 121.459 85.946 121.621 85.9886L122.507 86.2273C122.735 86.2869 122.987 86.3693 123.266 86.4744C123.547 86.5795 123.816 86.723 124.071 86.9048C124.33 87.0838 124.543 87.3139 124.71 87.5952C124.878 87.8764 124.962 88.2216 124.962 88.6307C124.962 89.1023 124.838 89.5284 124.591 89.9091C124.347 90.2898 123.989 90.5923 123.517 90.8168C123.048 91.0412 122.479 91.1534 121.808 91.1534C121.183 91.1534 120.642 91.0526 120.185 90.8509C119.73 90.6491 119.372 90.3679 119.111 90.0071C118.852 89.6463 118.706 89.2273 118.672 88.75H119.763C119.791 89.0795 119.902 89.3523 120.095 89.5682C120.291 89.7812 120.539 89.9403 120.837 90.0455C121.138 90.1477 121.462 90.1989 121.808 90.1989C122.212 90.1989 122.574 90.1335 122.895 90.0028C123.216 89.8693 123.47 89.6847 123.658 89.4489C123.845 89.2102 123.939 88.9318 123.939 88.6136C123.939 88.3239 123.858 88.0881 123.696 87.9062C123.534 87.7244 123.321 87.5767 123.057 87.4631C122.793 87.3494 122.507 87.25 122.2 87.1648L121.127 86.858C120.445 86.6619 119.905 86.3821 119.507 86.0185C119.11 85.6548 118.911 85.179 118.911 84.5909C118.911 84.1023 119.043 83.6761 119.307 83.3125C119.574 82.946 119.932 82.6619 120.381 82.4602C120.833 82.2557 121.337 82.1534 121.894 82.1534C122.456 82.1534 122.956 82.2543 123.394 82.456C123.831 82.6548 124.178 82.9276 124.433 83.2741C124.692 83.6207 124.828 84.0142 124.843 84.4545H123.82ZM128.285 91L125.898 82.2727H126.972L128.796 89.3807H128.881L130.739 82.2727H131.932L133.79 89.3807H133.876L135.699 82.2727H136.773L134.387 91H133.296L131.37 84.0455H131.302L129.376 91H128.285ZM46.8008 96.088H47.7608V106.936H46.8008V96.088ZM45.0488 100.444H47.1248V101.26H45.0488V100.444ZM42.2408 97.48H43.2008C43.2008 100.276 42.2408 102.868 39.1448 104.608L38.5568 103.9C41.2808 102.376 42.2408 100.18 42.2408 97.672V97.48ZM38.9768 97.48H42.5768V98.308H38.9768V97.48ZM44.3888 96.376H45.3368V106.408H44.3888V96.376ZM50.0518 96.532H51.0358V98.092H54.0958V96.532H55.0678V101.272H50.0518V96.532ZM51.0358 98.872V100.468H54.0958V98.872H51.0358ZM57.0238 96.088H58.0198V101.68H57.0238V96.088ZM57.5878 98.416H59.6158V99.244H57.5878V98.416ZM51.1318 102.208H58.0198V104.836H52.1398V106.468H51.1558V104.092H57.0478V103H51.1318V102.208ZM51.1558 106.024H58.4158V106.816H51.1558V106.024ZM64.5859 96.784H69.6379V101.224H64.5859V96.784ZM68.6779 97.588H65.5459V100.432H68.6779V97.588ZM71.9059 96.088H72.9019V102.316H71.9059V96.088ZM68.9659 103.6H69.8179V103.804C69.8179 105.364 67.8859 106.612 65.6899 106.9L65.3539 106.132C67.2379 105.916 68.9659 104.884 68.9659 103.804V103.6ZM69.1099 103.6H69.9739V103.804C69.9739 104.848 71.6539 105.904 73.5379 106.132L73.2019 106.9C70.9939 106.6 69.1099 105.328 69.1099 103.804V103.6ZM65.7859 103.048H73.1539V103.828H65.7859V103.048ZM68.9659 102.004H69.9739V103.396H68.9659V102.004ZM86.6919 96.088H87.6519V106.936H86.6919V96.088ZM84.9759 100.444H87.0519V101.272H84.9759V100.444ZM84.3399 96.328H85.2759V106.384H84.3399V96.328ZM78.5319 97.444H83.5479V98.26H78.5319V97.444ZM78.4359 104.272L78.3159 103.432C79.7439 103.432 82.0959 103.384 83.7519 103.168L83.8239 103.9C82.1079 104.224 79.8519 104.272 78.4359 104.272ZM79.4559 97.972H80.3679V103.648H79.4559V97.972ZM81.7119 97.972H82.6239V103.648H81.7119V97.972ZM94.275 97.216H95.235C95.235 100.348 94.131 103.252 90.219 105.172L89.679 104.392C93.111 102.712 94.275 100.288 94.275 97.324V97.216ZM90.267 97.216H94.779V98.02H90.267V97.216ZM94.131 99.904V100.672L89.895 101.068L89.727 100.192L94.131 99.904ZM97.371 96.088H98.367V106.936H97.371V96.088ZM103.382 97.636H104.186V99.4C104.186 101.692 102.806 103.996 101.078 104.848L100.502 104.056C102.074 103.312 103.382 101.272 103.382 99.4V97.636ZM103.574 97.636H104.378V99.4C104.378 101.236 105.686 103.108 107.282 103.792L106.718 104.584C104.966 103.768 103.574 101.656 103.574 99.4V97.636ZM100.862 97.192H106.922V98.032H100.862V97.192ZM108.386 96.088H109.382V106.936H108.386V96.088ZM119.785 96.088H120.745V106.936H119.785V96.088ZM118.033 100.444H120.109V101.26H118.033V100.444ZM115.225 97.48H116.185C116.185 100.276 115.225 102.868 112.129 104.608L111.541 103.9C114.265 102.376 115.225 100.18 115.225 97.672V97.48ZM111.961 97.48H115.561V98.308H111.961V97.48ZM117.373 96.376H118.321V106.408H117.373V96.376ZM123.036 96.532H124.02V98.092H127.08V96.532H128.052V101.272H123.036V96.532ZM124.02 98.872V100.468H127.08V98.872H124.02ZM130.008 96.088H131.004V101.68H130.008V96.088ZM130.572 98.416H132.6V99.244H130.572V98.416ZM124.116 102.208H131.004V104.836H125.124V106.468H124.14V104.092H130.032V103H124.116V102.208ZM124.14 106.024H131.4V106.816H124.14V106.024Z" fill="white"/>
<circle cx="100" cy="190" r="60" fill="#5EBDDB" fill-opacity="0.7"/>
<path d="M46.0568 195V186.273H51.3239V187.21H47.1136V190.159H51.0511V191.097H47.1136V194.062H51.392V195H46.0568ZM56.8423 190.168V191.105H53.0241V190.168H56.8423ZM58.7482 195V186.273H61.7994C62.4073 186.273 62.9087 186.378 63.3036 186.588C63.6985 186.795 63.9925 187.075 64.1857 187.428C64.3789 187.777 64.4755 188.165 64.4755 188.591C64.4755 188.966 64.4087 189.276 64.2752 189.52C64.1445 189.764 63.9712 189.957 63.7553 190.099C63.5423 190.241 63.3107 190.347 63.0607 190.415V190.5C63.3278 190.517 63.5962 190.611 63.8661 190.781C64.136 190.952 64.3619 191.196 64.5437 191.514C64.7255 191.832 64.8164 192.222 64.8164 192.682C64.8164 193.119 64.717 193.513 64.5181 193.862C64.3192 194.212 64.0053 194.489 63.5763 194.693C63.1474 194.898 62.5891 195 61.9016 195H58.7482ZM59.805 194.062H61.9016C62.592 194.062 63.082 193.929 63.3718 193.662C63.6644 193.392 63.8107 193.065 63.8107 192.682C63.8107 192.386 63.7354 192.114 63.5849 191.864C63.4343 191.611 63.2198 191.409 62.9414 191.259C62.663 191.105 62.3335 191.028 61.9528 191.028H59.805V194.062ZM59.805 190.108H61.7653C62.0835 190.108 62.3704 190.045 62.6261 189.92C62.8846 189.795 63.0891 189.619 63.2397 189.392C63.3931 189.165 63.4698 188.898 63.4698 188.591C63.4698 188.207 63.3363 187.882 63.0692 187.615C62.8022 187.345 62.3789 187.21 61.7994 187.21H59.805V190.108ZM70.5415 192.324V188.455H71.5472V195H70.5415V193.892H70.4734C70.32 194.224 70.0813 194.507 69.7575 194.74C69.4336 194.97 69.0245 195.085 68.5302 195.085C68.1211 195.085 67.7575 194.996 67.4393 194.817C67.1211 194.635 66.8711 194.362 66.6893 193.999C66.5075 193.632 66.4165 193.17 66.4165 192.614V188.455H67.4222V192.545C67.4222 193.023 67.5558 193.403 67.8228 193.688C68.0927 193.972 68.4364 194.114 68.854 194.114C69.104 194.114 69.3583 194.05 69.6168 193.922C69.8782 193.794 70.0969 193.598 70.2731 193.334C70.4521 193.07 70.5415 192.733 70.5415 192.324ZM78.0256 189.92L77.1222 190.176C77.0653 190.026 76.9815 189.879 76.8707 189.737C76.7628 189.592 76.6151 189.473 76.4276 189.379C76.2401 189.286 76 189.239 75.7074 189.239C75.3068 189.239 74.973 189.331 74.706 189.516C74.4418 189.697 74.3097 189.929 74.3097 190.21C74.3097 190.46 74.4006 190.658 74.5824 190.803C74.7642 190.947 75.0483 191.068 75.4347 191.165L76.4062 191.403C76.9915 191.545 77.4276 191.763 77.7145 192.055C78.0014 192.345 78.1449 192.719 78.1449 193.176C78.1449 193.551 78.0369 193.886 77.821 194.182C77.608 194.477 77.3097 194.71 76.9261 194.881C76.5426 195.051 76.0966 195.136 75.5881 195.136C74.9205 195.136 74.3679 194.991 73.9304 194.702C73.4929 194.412 73.2159 193.989 73.0994 193.432L74.054 193.193C74.1449 193.545 74.3168 193.81 74.5696 193.986C74.8253 194.162 75.1591 194.25 75.571 194.25C76.0398 194.25 76.4119 194.151 76.6875 193.952C76.9659 193.75 77.1051 193.509 77.1051 193.227C77.1051 193 77.0256 192.81 76.8665 192.656C76.7074 192.5 76.4631 192.384 76.1335 192.307L75.0426 192.051C74.4432 191.909 74.0028 191.689 73.7216 191.391C73.4432 191.089 73.304 190.713 73.304 190.261C73.304 189.892 73.4077 189.565 73.6151 189.281C73.8253 188.997 74.1108 188.774 74.4716 188.612C74.8352 188.45 75.2472 188.369 75.7074 188.369C76.3551 188.369 76.8636 188.511 77.233 188.795C77.6051 189.08 77.8693 189.455 78.0256 189.92ZM79.6587 195V188.455H80.6644V195H79.6587ZM80.1701 187.364C79.9741 187.364 79.805 187.297 79.663 187.163C79.5238 187.03 79.4542 186.869 79.4542 186.682C79.4542 186.494 79.5238 186.334 79.663 186.2C79.805 186.067 79.9741 186 80.1701 186C80.3661 186 80.5337 186.067 80.6729 186.2C80.815 186.334 80.886 186.494 80.886 186.682C80.886 186.869 80.815 187.03 80.6729 187.163C80.5337 187.297 80.3661 187.364 80.1701 187.364ZM83.5121 191.062V195H82.5064V188.455H83.478V189.477H83.5632C83.7166 189.145 83.9496 188.878 84.2621 188.676C84.5746 188.472 84.978 188.369 85.4723 188.369C85.9155 188.369 86.3033 188.46 86.6357 188.642C86.968 188.821 87.2266 189.094 87.4112 189.46C87.5959 189.824 87.6882 190.284 87.6882 190.841V195H86.6825V190.909C86.6825 190.395 86.549 189.994 86.282 189.707C86.0149 189.418 85.6484 189.273 85.1825 189.273C84.8615 189.273 84.5746 189.342 84.3217 189.482C84.0717 189.621 83.8743 189.824 83.7294 190.091C83.5845 190.358 83.5121 190.682 83.5121 191.062ZM92.2702 195.136C91.6396 195.136 91.0955 194.997 90.6381 194.719C90.1836 194.438 89.8327 194.045 89.5856 193.543C89.3413 193.037 89.2191 192.449 89.2191 191.778C89.2191 191.108 89.3413 190.517 89.5856 190.006C89.8327 189.491 90.1765 189.091 90.6168 188.804C91.06 188.514 91.5771 188.369 92.168 188.369C92.5089 188.369 92.8455 188.426 93.1779 188.54C93.5103 188.653 93.8129 188.838 94.0856 189.094C94.3583 189.347 94.5756 189.682 94.7376 190.099C94.8995 190.517 94.9805 191.031 94.9805 191.642V192.068H89.935V191.199H93.9577C93.9577 190.83 93.8839 190.5 93.7362 190.21C93.5913 189.92 93.3839 189.692 93.114 189.524C92.8469 189.357 92.5316 189.273 92.168 189.273C91.7674 189.273 91.4208 189.372 91.1282 189.571C90.8384 189.767 90.6154 190.023 90.4592 190.338C90.3029 190.653 90.2248 190.991 90.2248 191.352V191.932C90.2248 192.426 90.31 192.845 90.4805 193.189C90.6538 193.53 90.8938 193.79 91.2006 193.969C91.5075 194.145 91.864 194.233 92.2702 194.233C92.5344 194.233 92.7731 194.196 92.9862 194.122C93.2021 194.045 93.3881 193.932 93.5444 193.781C93.7006 193.628 93.8214 193.437 93.9066 193.21L94.8782 193.483C94.7759 193.812 94.604 194.102 94.3626 194.352C94.1211 194.599 93.8228 194.793 93.4677 194.932C93.1126 195.068 92.7134 195.136 92.2702 195.136ZM101.147 189.92L100.243 190.176C100.186 190.026 100.103 189.879 99.9918 189.737C99.8839 189.592 99.7362 189.473 99.5487 189.379C99.3612 189.286 99.1211 189.239 98.8285 189.239C98.4279 189.239 98.0941 189.331 97.8271 189.516C97.5629 189.697 97.4308 189.929 97.4308 190.21C97.4308 190.46 97.5217 190.658 97.7035 190.803C97.8853 190.947 98.1694 191.068 98.5558 191.165L99.5273 191.403C100.113 191.545 100.549 191.763 100.836 192.055C101.123 192.345 101.266 192.719 101.266 193.176C101.266 193.551 101.158 193.886 100.942 194.182C100.729 194.477 100.431 194.71 100.047 194.881C99.6637 195.051 99.2177 195.136 98.7092 195.136C98.0415 195.136 97.489 194.991 97.0515 194.702C96.614 194.412 96.337 193.989 96.2205 193.432L97.1751 193.193C97.266 193.545 97.4379 193.81 97.6907 193.986C97.9464 194.162 98.2802 194.25 98.6921 194.25C99.1609 194.25 99.533 194.151 99.8086 193.952C100.087 193.75 100.226 193.509 100.226 193.227C100.226 193 100.147 192.81 99.9876 192.656C99.8285 192.5 99.5842 192.384 99.2546 192.307L98.1637 192.051C97.5643 191.909 97.1239 191.689 96.8427 191.391C96.5643 191.089 96.4251 190.713 96.4251 190.261C96.4251 189.892 96.5288 189.565 96.7362 189.281C96.9464 188.997 97.2319 188.774 97.5927 188.612C97.9563 188.45 98.3683 188.369 98.8285 188.369C99.4762 188.369 99.9847 188.511 100.354 188.795C100.726 189.08 100.99 189.455 101.147 189.92ZM105.251 195.119C104.678 195.119 104.183 195.014 103.768 194.804C103.354 194.594 103.034 194.305 102.81 193.939C102.585 193.572 102.473 193.153 102.473 192.682C102.473 192.318 102.55 191.996 102.703 191.714C102.859 191.43 103.074 191.168 103.347 190.926C103.622 190.682 103.939 190.438 104.297 190.193L105.558 189.256C105.805 189.094 106.003 188.92 106.151 188.736C106.301 188.551 106.376 188.31 106.376 188.011C106.376 187.79 106.278 187.575 106.082 187.368C105.889 187.161 105.635 187.057 105.32 187.057C105.098 187.057 104.902 187.114 104.732 187.227C104.564 187.338 104.432 187.48 104.335 187.653C104.241 187.824 104.195 188 104.195 188.182C104.195 188.386 104.25 188.594 104.361 188.804C104.474 189.011 104.618 189.224 104.791 189.443C104.967 189.659 105.149 189.881 105.337 190.108L109.342 195H108.132L104.825 191.011C104.518 190.642 104.24 190.307 103.99 190.006C103.74 189.705 103.541 189.408 103.393 189.115C103.246 188.822 103.172 188.506 103.172 188.165C103.172 187.773 103.259 187.429 103.432 187.134C103.608 186.835 103.854 186.604 104.169 186.439C104.487 186.271 104.859 186.188 105.286 186.188C105.723 186.188 106.099 186.273 106.415 186.443C106.73 186.611 106.973 186.834 107.143 187.112C107.314 187.388 107.399 187.688 107.399 188.011C107.399 188.429 107.295 188.791 107.088 189.098C106.881 189.405 106.598 189.69 106.24 189.955L104.501 191.25C104.109 191.54 103.844 191.821 103.705 192.094C103.565 192.366 103.496 192.562 103.496 192.682C103.496 192.955 103.567 193.209 103.709 193.445C103.851 193.68 104.051 193.871 104.31 194.016C104.568 194.161 104.871 194.233 105.217 194.233C105.547 194.233 105.868 194.163 106.18 194.024C106.493 193.882 106.776 193.678 107.028 193.411C107.284 193.143 107.486 192.822 107.634 192.447C107.784 192.072 107.859 191.651 107.859 191.182H108.831C108.831 191.761 108.764 192.234 108.631 192.601C108.497 192.967 108.347 193.254 108.179 193.462C108.011 193.669 107.876 193.824 107.774 193.926C107.74 193.969 107.709 194.011 107.68 194.054C107.652 194.097 107.621 194.139 107.587 194.182C107.305 194.497 106.95 194.733 106.521 194.889C106.092 195.043 105.669 195.119 105.251 195.119ZM111.359 185.796H118.139V186.6H111.359V185.796ZM110.135 190.452H119.939V191.268H110.135V190.452ZM114.515 190.992H115.511V195.948H114.515V190.992ZM117.671 185.796H118.643V186.732C118.643 187.86 118.643 189.132 118.235 190.968L117.251 190.836C117.671 189.084 117.671 187.824 117.671 186.732V185.796ZM125.578 191.124H126.562V192.828H125.578V191.124ZM121.162 190.548H130.966V191.352H121.162V190.548ZM122.254 192.576H129.754V195.9H128.758V193.392H122.254V192.576ZM125.578 185.028H126.562V186.54H125.578V185.028ZM125.53 186.672H126.406V186.852C126.406 188.64 124.426 189.684 122.062 189.936L121.75 189.18C123.85 188.988 125.53 188.1 125.53 186.852V186.672ZM125.734 186.672H126.61V186.852C126.61 188.1 128.29 188.988 130.39 189.18L130.078 189.936C127.702 189.684 125.734 188.64 125.734 186.852V186.672ZM122.17 186.144H129.97V186.948H122.17V186.144ZM134.865 186.024H135.681V187.968C135.681 190.368 134.385 192.708 132.669 193.62L132.057 192.828C133.629 192.036 134.865 189.948 134.865 187.968V186.024ZM135.045 186.024H135.849V187.968C135.849 189.876 137.061 191.856 138.597 192.624L137.985 193.416C136.305 192.516 135.045 190.296 135.045 187.968V186.024ZM139.545 185.088H140.553V195.936H139.545V185.088ZM140.313 189.48H142.329V190.32H140.313V189.48ZM148.7 187.668H151.616V188.496H148.7V187.668ZM146.204 185.58C147.824 185.58 149 186.612 149 188.1C149 189.588 147.824 190.608 146.204 190.608C144.584 190.608 143.408 189.588 143.408 188.1C143.408 186.612 144.584 185.58 146.204 185.58ZM146.204 186.42C145.136 186.42 144.368 187.104 144.368 188.1C144.368 189.084 145.136 189.78 146.204 189.78C147.272 189.78 148.04 189.084 148.04 188.1C148.04 187.104 147.272 186.42 146.204 186.42ZM151.172 185.088H152.168V190.908H151.172V185.088ZM145.22 191.448H146.216V192.816H151.184V191.448H152.168V195.792H145.22V191.448ZM146.216 193.608V194.988H151.184V193.608H146.216Z" fill="white"/>
<circle cx="205" cy="215" r="60" fill="#F2E916" fill-opacity="0.7"/>
<path d="M168.942 210.636C168.942 211.557 168.776 212.352 168.443 213.023C168.111 213.693 167.655 214.21 167.075 214.574C166.496 214.938 165.834 215.119 165.09 215.119C164.345 215.119 163.683 214.938 163.104 214.574C162.524 214.21 162.068 213.693 161.736 213.023C161.404 212.352 161.237 211.557 161.237 210.636C161.237 209.716 161.404 208.92 161.736 208.25C162.068 207.58 162.524 207.062 163.104 206.699C163.683 206.335 164.345 206.153 165.09 206.153C165.834 206.153 166.496 206.335 167.075 206.699C167.655 207.062 168.111 207.58 168.443 208.25C168.776 208.92 168.942 209.716 168.942 210.636ZM167.919 210.636C167.919 209.881 167.793 209.243 167.54 208.723C167.29 208.203 166.95 207.81 166.521 207.543C166.095 207.276 165.618 207.142 165.09 207.142C164.561 207.142 164.083 207.276 163.654 207.543C163.227 207.81 162.888 208.203 162.635 208.723C162.385 209.243 162.26 209.881 162.26 210.636C162.26 211.392 162.385 212.03 162.635 212.55C162.888 213.07 163.227 213.463 163.654 213.73C164.083 213.997 164.561 214.131 165.09 214.131C165.618 214.131 166.095 213.997 166.521 213.73C166.95 213.463 167.29 213.07 167.54 212.55C167.793 212.03 167.919 211.392 167.919 210.636ZM176.446 206.273H177.503V212.051C177.503 212.648 177.362 213.18 177.081 213.649C176.803 214.115 176.409 214.483 175.901 214.753C175.392 215.02 174.796 215.153 174.111 215.153C173.426 215.153 172.83 215.02 172.321 214.753C171.813 214.483 171.418 214.115 171.137 213.649C170.858 213.18 170.719 212.648 170.719 212.051V206.273H171.776V211.966C171.776 212.392 171.869 212.771 172.057 213.104C172.244 213.433 172.512 213.693 172.858 213.884C173.208 214.071 173.625 214.165 174.111 214.165C174.597 214.165 175.014 214.071 175.364 213.884C175.713 213.693 175.98 213.433 176.165 213.104C176.352 212.771 176.446 212.392 176.446 211.966V206.273ZM179.136 207.21V206.273H185.682V207.21H182.937V215H181.881V207.21H179.136ZM192.085 208.455C192.034 208.023 191.827 207.688 191.463 207.449C191.1 207.21 190.654 207.091 190.125 207.091C189.739 207.091 189.401 207.153 189.111 207.278C188.824 207.403 188.6 207.575 188.438 207.794C188.279 208.013 188.199 208.261 188.199 208.54C188.199 208.773 188.254 208.973 188.365 209.141C188.479 209.305 188.624 209.443 188.8 209.554C188.976 209.662 189.161 209.751 189.354 209.822C189.547 209.891 189.725 209.946 189.887 209.989L190.773 210.227C191 210.287 191.253 210.369 191.531 210.474C191.813 210.58 192.081 210.723 192.337 210.905C192.595 211.084 192.808 211.314 192.976 211.595C193.144 211.876 193.227 212.222 193.227 212.631C193.227 213.102 193.104 213.528 192.857 213.909C192.612 214.29 192.254 214.592 191.783 214.817C191.314 215.041 190.744 215.153 190.074 215.153C189.449 215.153 188.908 215.053 188.45 214.851C187.996 214.649 187.638 214.368 187.377 214.007C187.118 213.646 186.972 213.227 186.938 212.75H188.029C188.057 213.08 188.168 213.352 188.361 213.568C188.557 213.781 188.804 213.94 189.102 214.045C189.404 214.148 189.727 214.199 190.074 214.199C190.477 214.199 190.84 214.134 191.161 214.003C191.482 213.869 191.736 213.685 191.923 213.449C192.111 213.21 192.205 212.932 192.205 212.614C192.205 212.324 192.124 212.088 191.962 211.906C191.8 211.724 191.587 211.577 191.323 211.463C191.058 211.349 190.773 211.25 190.466 211.165L189.392 210.858C188.71 210.662 188.171 210.382 187.773 210.018C187.375 209.655 187.176 209.179 187.176 208.591C187.176 208.102 187.308 207.676 187.573 207.312C187.84 206.946 188.198 206.662 188.646 206.46C189.098 206.256 189.602 206.153 190.159 206.153C190.722 206.153 191.222 206.254 191.659 206.456C192.097 206.655 192.443 206.928 192.699 207.274C192.958 207.621 193.094 208.014 193.108 208.455H192.085ZM202.329 210.636C202.329 211.557 202.162 212.352 201.83 213.023C201.498 213.693 201.042 214.21 200.462 214.574C199.883 214.938 199.221 215.119 198.476 215.119C197.732 215.119 197.07 214.938 196.491 214.574C195.911 214.21 195.455 213.693 195.123 213.023C194.79 212.352 194.624 211.557 194.624 210.636C194.624 209.716 194.79 208.92 195.123 208.25C195.455 207.58 195.911 207.062 196.491 206.699C197.07 206.335 197.732 206.153 198.476 206.153C199.221 206.153 199.883 206.335 200.462 206.699C201.042 207.062 201.498 207.58 201.83 208.25C202.162 208.92 202.329 209.716 202.329 210.636ZM201.306 210.636C201.306 209.881 201.18 209.243 200.927 208.723C200.677 208.203 200.337 207.81 199.908 207.543C199.482 207.276 199.005 207.142 198.476 207.142C197.948 207.142 197.469 207.276 197.04 207.543C196.614 207.81 196.275 208.203 196.022 208.723C195.772 209.243 195.647 209.881 195.647 210.636C195.647 211.392 195.772 212.03 196.022 212.55C196.275 213.07 196.614 213.463 197.04 213.73C197.469 213.997 197.948 214.131 198.476 214.131C199.005 214.131 199.482 213.997 199.908 213.73C200.337 213.463 200.677 213.07 200.927 212.55C201.18 212.03 201.306 211.392 201.306 210.636ZM209.833 206.273H210.89V212.051C210.89 212.648 210.749 213.18 210.468 213.649C210.189 214.115 209.796 214.483 209.287 214.753C208.779 215.02 208.182 215.153 207.498 215.153C206.813 215.153 206.216 215.02 205.708 214.753C205.199 214.483 204.805 214.115 204.523 213.649C204.245 213.18 204.106 212.648 204.106 212.051V206.273H205.162V211.966C205.162 212.392 205.256 212.771 205.444 213.104C205.631 213.433 205.898 213.693 206.245 213.884C206.594 214.071 207.012 214.165 207.498 214.165C207.983 214.165 208.401 214.071 208.751 213.884C209.1 213.693 209.367 213.433 209.552 213.104C209.739 212.771 209.833 212.392 209.833 211.966V206.273ZM213 215V206.273H215.949C216.631 206.273 217.191 206.389 217.628 206.622C218.066 206.852 218.389 207.169 218.6 207.572C218.81 207.976 218.915 208.435 218.915 208.949C218.915 209.463 218.81 209.919 218.6 210.317C218.389 210.714 218.067 211.027 217.632 211.254C217.198 211.479 216.642 211.591 215.966 211.591H213.58V210.636H215.932C216.398 210.636 216.773 210.568 217.057 210.432C217.344 210.295 217.551 210.102 217.679 209.852C217.81 209.599 217.875 209.298 217.875 208.949C217.875 208.599 217.81 208.294 217.679 208.033C217.548 207.771 217.34 207.57 217.053 207.428C216.766 207.283 216.387 207.21 215.915 207.21H214.057V215H213ZM217.108 211.08L219.256 215H218.029L215.915 211.08H217.108ZM227.699 209H226.642C226.579 208.696 226.47 208.429 226.314 208.199C226.16 207.969 225.973 207.776 225.751 207.619C225.532 207.46 225.29 207.341 225.023 207.261C224.756 207.182 224.477 207.142 224.187 207.142C223.659 207.142 223.18 207.276 222.751 207.543C222.325 207.81 221.986 208.203 221.733 208.723C221.483 209.243 221.358 209.881 221.358 210.636C221.358 211.392 221.483 212.03 221.733 212.55C221.986 213.07 222.325 213.463 222.751 213.73C223.18 213.997 223.659 214.131 224.187 214.131C224.477 214.131 224.756 214.091 225.023 214.011C225.29 213.932 225.532 213.814 225.751 213.658C225.973 213.499 226.16 213.304 226.314 213.074C226.47 212.841 226.579 212.574 226.642 212.273H227.699C227.619 212.719 227.474 213.118 227.264 213.47C227.054 213.822 226.792 214.122 226.48 214.369C226.167 214.614 225.817 214.8 225.427 214.928C225.041 215.055 224.628 215.119 224.187 215.119C223.443 215.119 222.781 214.938 222.202 214.574C221.622 214.21 221.166 213.693 220.834 213.023C220.501 212.352 220.335 211.557 220.335 210.636C220.335 209.716 220.501 208.92 220.834 208.25C221.166 207.58 221.622 207.062 222.202 206.699C222.781 206.335 223.443 206.153 224.187 206.153C224.628 206.153 225.041 206.217 225.427 206.345C225.817 206.473 226.167 206.661 226.48 206.908C226.792 207.152 227.054 207.45 227.264 207.803C227.474 208.152 227.619 208.551 227.699 209ZM230.463 206.273V215H229.406V206.273H230.463ZM239.503 206.273V215H238.48L233.724 208.148H233.639V215H232.582V206.273H233.605L238.378 213.142H238.463V206.273H239.503ZM247.583 209C247.49 208.713 247.366 208.456 247.213 208.229C247.062 207.999 246.882 207.803 246.671 207.641C246.464 207.479 246.228 207.355 245.964 207.27C245.7 207.185 245.41 207.142 245.095 207.142C244.578 207.142 244.107 207.276 243.684 207.543C243.261 207.81 242.924 208.203 242.674 208.723C242.424 209.243 242.299 209.881 242.299 210.636C242.299 211.392 242.426 212.03 242.678 212.55C242.931 213.07 243.274 213.463 243.705 213.73C244.137 213.997 244.623 214.131 245.163 214.131C245.663 214.131 246.103 214.024 246.484 213.811C246.867 213.595 247.166 213.291 247.379 212.899C247.595 212.504 247.703 212.04 247.703 211.506L248.026 211.574H245.401V210.636H248.725V211.574C248.725 212.293 248.572 212.918 248.265 213.449C247.961 213.98 247.541 214.392 247.004 214.685C246.47 214.974 245.856 215.119 245.163 215.119C244.39 215.119 243.711 214.938 243.126 214.574C242.544 214.21 242.089 213.693 241.762 213.023C241.438 212.352 241.276 211.557 241.276 210.636C241.276 209.946 241.369 209.325 241.553 208.774C241.741 208.22 242.005 207.749 242.346 207.359C242.687 206.97 243.09 206.672 243.556 206.464C244.022 206.257 244.535 206.153 245.095 206.153C245.555 206.153 245.984 206.223 246.382 206.362C246.782 206.499 247.139 206.693 247.451 206.946C247.767 207.196 248.029 207.496 248.24 207.845C248.45 208.192 248.595 208.577 248.674 209H247.583ZM197.213 221.024H198.029V222.968C198.029 225.368 196.733 227.708 195.017 228.62L194.405 227.828C195.977 227.036 197.213 224.948 197.213 222.968V221.024ZM197.393 221.024H198.197V222.968C198.197 224.876 199.409 226.856 200.945 227.624L200.333 228.416C198.653 227.516 197.393 225.296 197.393 222.968V221.024ZM201.893 220.088H202.901V230.936H201.893V220.088ZM202.661 224.48H204.677V225.32H202.661V224.48ZM211.048 222.668H213.964V223.496H211.048V222.668ZM208.552 220.58C210.172 220.58 211.348 221.612 211.348 223.1C211.348 224.588 210.172 225.608 208.552 225.608C206.932 225.608 205.756 224.588 205.756 223.1C205.756 221.612 206.932 220.58 208.552 220.58ZM208.552 221.42C207.484 221.42 206.716 222.104 206.716 223.1C206.716 224.084 207.484 224.78 208.552 224.78C209.62 224.78 210.388 224.084 210.388 223.1C210.388 222.104 209.62 221.42 208.552 221.42ZM213.52 220.088H214.516V225.908H213.52V220.088ZM207.568 226.448H208.564V227.816H213.532V226.448H214.516V230.792H207.568V226.448ZM208.564 228.608V229.988H213.532V228.608H208.564Z" fill="white"/>
</svg>
