<svg width="300" height="300" viewBox="0 0 300 300" fill="none" xmlns="http://www.w3.org/2000/svg">
<circle cx="150" cy="150" r="150" fill="white" fill-opacity="0.95"/>
<path d="M123.553 19.422H124.729V32.106H123.553V19.422ZM124.449 24.42H126.801V25.4H124.449V24.42ZM115.531 27.976H116.525C118.863 27.976 120.501 27.892 122.391 27.542L122.517 28.522C120.571 28.886 118.905 28.956 116.525 28.956H115.531V27.976ZM115.531 20.654H121.411V21.606H116.679V28.41H115.531V20.654ZM137.342 21.326H139.54V22.292H137.342V21.326ZM137.342 24.014H139.54V24.98H137.342V24.014ZM131.406 20.178C133.31 20.178 134.71 21.41 134.71 23.174C134.71 24.924 133.31 26.142 131.406 26.142C129.502 26.142 128.102 24.924 128.102 23.174C128.102 21.41 129.502 20.178 131.406 20.178ZM131.406 21.158C130.146 21.158 129.236 21.984 129.236 23.174C129.236 24.364 130.146 25.176 131.406 25.176C132.666 25.176 133.576 24.364 133.576 23.174C133.576 21.984 132.666 21.158 131.406 21.158ZM136.53 19.436H137.692V26.926H136.53V19.436ZM133.66 27.332C136.236 27.332 137.818 28.214 137.818 29.698C137.818 31.196 136.236 32.064 133.66 32.064C131.084 32.064 129.502 31.196 129.502 29.698C129.502 28.214 131.084 27.332 133.66 27.332ZM133.66 28.27C131.784 28.27 130.636 28.788 130.636 29.698C130.636 30.608 131.784 31.14 133.66 31.14C135.536 31.14 136.684 30.608 136.684 29.698C136.684 28.788 135.536 28.27 133.66 28.27ZM149.409 19.45H150.571V28.942H149.409V19.45ZM150.207 23.594H152.447V24.574H150.207V23.594ZM140.785 20.976H148.261V21.914H140.785V20.976ZM144.523 22.614C146.315 22.614 147.547 23.552 147.547 24.98C147.547 26.394 146.315 27.332 144.523 27.332C142.717 27.332 141.485 26.394 141.485 24.98C141.485 23.552 142.717 22.614 144.523 22.614ZM144.523 23.524C143.375 23.524 142.591 24.098 142.591 24.98C142.591 25.848 143.375 26.422 144.523 26.422C145.657 26.422 146.441 25.848 146.441 24.98C146.441 24.098 145.657 23.524 144.523 23.524ZM143.935 19.436H145.097V21.466H143.935V19.436ZM142.689 30.86H151.145V31.812H142.689V30.86ZM142.689 28.186H143.851V31.266H142.689V28.186ZM158.524 31H157.231L160.97 20.8182H162.242L165.981 31H164.688L161.646 22.429H161.566L158.524 31ZM159.001 27.0227H164.211V28.1165H159.001V27.0227ZM167.408 33.8636V23.3636H168.541V24.5767H168.681C168.767 24.4441 168.886 24.2751 169.039 24.0696C169.194 23.8608 169.416 23.6752 169.705 23.5128C169.996 23.3471 170.391 23.2642 170.888 23.2642C171.531 23.2642 172.098 23.425 172.588 23.7464C173.079 24.0679 173.462 24.5237 173.737 25.1136C174.012 25.7036 174.149 26.3996 174.149 27.2017C174.149 28.0104 174.012 28.7114 173.737 29.3047C173.462 29.8946 173.08 30.352 172.593 30.6768C172.106 30.9983 171.544 31.1591 170.908 31.1591C170.417 31.1591 170.025 31.0779 169.73 30.9155C169.435 30.7498 169.208 30.5625 169.048 30.3537C168.889 30.1416 168.767 29.9659 168.681 29.8267H168.581V33.8636H167.408ZM168.561 27.1818C168.561 27.7585 168.646 28.2673 168.815 28.7081C168.984 29.1456 169.231 29.4886 169.556 29.7372C169.88 29.9825 170.278 30.1051 170.749 30.1051C171.239 30.1051 171.649 29.9759 171.977 29.7173C172.308 29.4555 172.557 29.1042 172.722 28.6634C172.892 28.2192 172.976 27.7254 172.976 27.1818C172.976 26.6449 172.893 26.161 172.727 25.7301C172.565 25.2959 172.318 24.9529 171.987 24.701C171.659 24.4458 171.246 24.3182 170.749 24.3182C170.271 24.3182 169.87 24.4392 169.546 24.6811C169.221 24.9197 168.976 25.2545 168.81 25.6854C168.644 26.1129 168.561 26.6117 168.561 27.1818ZM175.939 33.8636V23.3636H177.073V24.5767H177.212C177.298 24.4441 177.417 24.2751 177.57 24.0696C177.726 23.8608 177.948 23.6752 178.236 23.5128C178.528 23.3471 178.922 23.2642 179.419 23.2642C180.062 23.2642 180.629 23.425 181.119 23.7464C181.61 24.0679 181.993 24.5237 182.268 25.1136C182.543 25.7036 182.681 26.3996 182.681 27.2017C182.681 28.0104 182.543 28.7114 182.268 29.3047C181.993 29.8946 181.612 30.352 181.124 30.6768C180.637 30.9983 180.075 31.1591 179.439 31.1591C178.949 31.1591 178.556 31.0779 178.261 30.9155C177.966 30.7498 177.739 30.5625 177.58 30.3537C177.421 30.1416 177.298 29.9659 177.212 29.8267H177.112V33.8636H175.939ZM177.093 27.1818C177.093 27.7585 177.177 28.2673 177.346 28.7081C177.515 29.1456 177.762 29.4886 178.087 29.7372C178.412 29.9825 178.809 30.1051 179.28 30.1051C179.771 30.1051 180.18 29.9759 180.508 29.7173C180.839 29.4555 181.088 29.1042 181.254 28.6634C181.423 28.2192 181.507 27.7254 181.507 27.1818C181.507 26.6449 181.424 26.161 181.259 25.7301C181.096 25.2959 180.849 24.9529 180.518 24.701C180.19 24.4458 179.777 24.3182 179.28 24.3182C178.803 24.3182 178.402 24.4392 178.077 24.6811C177.752 24.9197 177.507 25.2545 177.341 25.6854C177.175 26.1129 177.093 26.6117 177.093 27.1818ZM185.644 20.8182V31H184.47V20.8182H185.644ZM187.793 31V23.3636H188.966V31H187.793ZM188.389 22.0909C188.161 22.0909 187.963 22.013 187.798 21.8572C187.635 21.7015 187.554 21.5142 187.554 21.2955C187.554 21.0767 187.635 20.8894 187.798 20.7337C187.963 20.5779 188.161 20.5 188.389 20.5C188.618 20.5 188.813 20.5779 188.976 20.7337C189.142 20.8894 189.224 21.0767 189.224 21.2955C189.224 21.5142 189.142 21.7015 188.976 21.8572C188.813 22.013 188.618 22.0909 188.389 22.0909ZM194.217 31.1591C193.501 31.1591 192.885 30.9901 192.368 30.652C191.851 30.3139 191.453 29.8482 191.175 29.255C190.896 28.6617 190.757 27.9839 190.757 27.2216C190.757 26.446 190.899 25.7616 191.184 25.1683C191.473 24.5717 191.874 24.1061 192.388 23.7713C192.905 23.4332 193.508 23.2642 194.197 23.2642C194.734 23.2642 195.218 23.3636 195.649 23.5625C196.08 23.7614 196.433 24.0398 196.708 24.3977C196.983 24.7557 197.154 25.1733 197.22 25.6506H196.047C195.957 25.3026 195.758 24.9943 195.45 24.7259C195.145 24.4541 194.734 24.3182 194.217 24.3182C193.76 24.3182 193.359 24.4375 193.014 24.6761C192.673 24.9115 192.406 25.2446 192.214 25.6754C192.025 26.103 191.93 26.6051 191.93 27.1818C191.93 27.7718 192.023 28.2855 192.209 28.723C192.398 29.1605 192.663 29.5002 193.004 29.7422C193.349 29.9841 193.753 30.1051 194.217 30.1051C194.522 30.1051 194.799 30.0521 195.047 29.946C195.296 29.84 195.506 29.6875 195.679 29.4886C195.851 29.2898 195.974 29.0511 196.047 28.7727H197.22C197.154 29.2235 196.99 29.6295 196.728 29.9908C196.469 30.3487 196.126 30.6338 195.699 30.8459C195.274 31.0547 194.781 31.1591 194.217 31.1591ZM201.182 31.179C200.698 31.179 200.259 31.0878 199.865 30.9055C199.47 30.7199 199.157 30.4531 198.925 30.1051C198.693 29.7538 198.577 29.3295 198.577 28.8324C198.577 28.3949 198.663 28.0402 198.836 27.7685C199.008 27.4934 199.238 27.2779 199.527 27.1222C199.815 26.9664 200.133 26.8504 200.481 26.7741C200.833 26.6946 201.186 26.6316 201.54 26.5852C202.004 26.5256 202.381 26.4808 202.669 26.451C202.961 26.4179 203.173 26.3632 203.305 26.2869C203.441 26.2107 203.509 26.0781 203.509 25.8892V25.8494C203.509 25.3589 203.375 24.9777 203.106 24.706C202.841 24.4342 202.439 24.2983 201.898 24.2983C201.338 24.2983 200.899 24.4209 200.581 24.6662C200.263 24.9115 200.039 25.1733 199.91 25.4517L198.796 25.054C198.995 24.59 199.26 24.2287 199.591 23.9702C199.926 23.7083 200.291 23.526 200.685 23.4233C201.083 23.3172 201.474 23.2642 201.858 23.2642C202.104 23.2642 202.385 23.294 202.704 23.3537C203.025 23.41 203.335 23.5277 203.633 23.7067C203.935 23.8857 204.185 24.1558 204.384 24.517C204.583 24.8783 204.682 25.3622 204.682 25.9688V31H203.509V29.9659H203.449C203.37 30.1316 203.237 30.3089 203.052 30.4979C202.866 30.6868 202.619 30.8475 202.311 30.9801C202.003 31.1127 201.626 31.179 201.182 31.179ZM201.361 30.125C201.825 30.125 202.216 30.0339 202.535 29.8516C202.856 29.6693 203.098 29.4339 203.26 29.1456C203.426 28.8572 203.509 28.554 203.509 28.2358V27.1619C203.459 27.2216 203.35 27.2763 203.181 27.326C203.015 27.3724 202.823 27.4138 202.604 27.4503C202.389 27.4834 202.178 27.5133 201.973 27.5398C201.771 27.563 201.607 27.5829 201.481 27.5994C201.176 27.6392 200.891 27.7038 200.626 27.7933C200.364 27.8795 200.152 28.0104 199.989 28.1861C199.83 28.3584 199.751 28.5937 199.751 28.892C199.751 29.2997 199.901 29.608 200.203 29.8168C200.508 30.0223 200.894 30.125 201.361 30.125ZM210.145 23.3636V24.358H206.188V23.3636H210.145ZM207.341 21.5341H208.514V28.8125C208.514 29.1439 208.562 29.3925 208.658 29.5582C208.758 29.7206 208.884 29.83 209.036 29.8864C209.192 29.9394 209.356 29.9659 209.528 29.9659C209.658 29.9659 209.764 29.9593 209.847 29.946C209.929 29.9295 209.996 29.9162 210.045 29.9062L210.284 30.9602C210.205 30.9901 210.094 31.0199 209.951 31.0497C209.808 31.0829 209.628 31.0994 209.409 31.0994C209.078 31.0994 208.753 31.0282 208.435 30.8857C208.12 30.7431 207.858 30.526 207.649 30.2344C207.444 29.9427 207.341 29.5748 207.341 29.1307V21.5341ZM211.91 31V23.3636H213.083V31H211.91ZM212.506 22.0909C212.278 22.0909 212.08 22.013 211.915 21.8572C211.752 21.7015 211.671 21.5142 211.671 21.2955C211.671 21.0767 211.752 20.8894 211.915 20.7337C212.08 20.5779 212.278 20.5 212.506 20.5C212.735 20.5 212.931 20.5779 213.093 20.7337C213.259 20.8894 213.342 21.0767 213.342 21.2955C213.342 21.5142 213.259 21.7015 213.093 21.8572C212.931 22.013 212.735 22.0909 212.506 22.0909ZM218.334 31.1591C217.645 31.1591 217.04 30.995 216.52 30.6669C216.003 30.3388 215.598 29.8797 215.307 29.2898C215.018 28.6998 214.874 28.0104 214.874 27.2216C214.874 26.4261 215.018 25.7318 215.307 25.1385C215.598 24.5452 216.003 24.0845 216.52 23.7564C217.04 23.4283 217.645 23.2642 218.334 23.2642C219.024 23.2642 219.627 23.4283 220.144 23.7564C220.664 24.0845 221.069 24.5452 221.357 25.1385C221.649 25.7318 221.795 26.4261 221.795 27.2216C221.795 28.0104 221.649 28.6998 221.357 29.2898C221.069 29.8797 220.664 30.3388 220.144 30.6669C219.627 30.995 219.024 31.1591 218.334 31.1591ZM218.334 30.1051C218.858 30.1051 219.289 29.9709 219.627 29.7024C219.965 29.4339 220.215 29.081 220.378 28.6435C220.54 28.206 220.621 27.732 220.621 27.2216C220.621 26.7112 220.54 26.2356 220.378 25.7947C220.215 25.3539 219.965 24.9976 219.627 24.7259C219.289 24.4541 218.858 24.3182 218.334 24.3182C217.811 24.3182 217.38 24.4541 217.042 24.7259C216.704 24.9976 216.453 25.3539 216.291 25.7947C216.129 26.2356 216.047 26.7112 216.047 27.2216C216.047 27.732 216.129 28.206 216.291 28.6435C216.453 29.081 216.704 29.4339 217.042 29.7024C217.38 29.9709 217.811 30.1051 218.334 30.1051ZM224.759 26.4062V31H223.586V23.3636H224.719V24.5568H224.819C224.998 24.169 225.269 23.8575 225.634 23.6222C225.998 23.3835 226.469 23.2642 227.046 23.2642C227.563 23.2642 228.015 23.3703 228.403 23.5824C228.791 23.7912 229.092 24.1094 229.308 24.5369C229.523 24.9612 229.631 25.4981 229.631 26.1477V31H228.458V26.2273C228.458 25.6274 228.302 25.16 227.99 24.8253C227.679 24.4872 227.251 24.3182 226.708 24.3182C226.333 24.3182 225.998 24.3994 225.703 24.5618C225.412 24.7242 225.181 24.9612 225.012 25.2727C224.843 25.5843 224.759 25.9621 224.759 26.4062ZM139.311 36.436H140.473V49.092H139.311V36.436ZM135.601 37.794H136.749C136.749 41.462 135.097 44.668 130.869 46.74L130.253 45.802C133.907 44.038 135.601 41.35 135.601 37.99V37.794ZM130.827 37.794H136.105V38.746H130.827V37.794ZM143.44 37.584H150.846V38.452H143.44V37.584ZM147.15 38.942C148.97 38.942 150.16 39.67 150.16 40.818C150.16 41.98 148.97 42.708 147.15 42.708C145.344 42.708 144.154 41.98 144.154 40.818C144.154 39.67 145.344 38.942 147.15 38.942ZM147.15 39.754C146.016 39.754 145.246 40.16 145.246 40.818C145.246 41.462 146.016 41.896 147.15 41.896C148.312 41.896 149.054 41.462 149.054 40.818C149.054 40.16 148.312 39.754 147.15 39.754ZM146.562 36.352H147.738V38.046H146.562V36.352ZM146.562 42.246H147.738V43.968H146.562V42.246ZM152.162 36.45H153.324V44.92H152.162V36.45ZM144.84 45.508H153.324V49.092H152.162V46.432H144.84V45.508ZM143.188 44.528L143.034 43.59C145.358 43.59 148.494 43.576 151.154 43.212L151.238 44.024C148.48 44.486 145.47 44.528 143.188 44.528ZM159.831 37.3409L156.549 49.5312H155.475L158.757 37.3409H159.831ZM162.275 37.262H170.185V38.2H162.275V37.262ZM160.847 42.694H172.285V43.646H160.847V42.694ZM165.957 43.324H167.119V49.106H165.957V43.324ZM169.639 37.262H170.773V38.354C170.773 39.67 170.773 41.154 170.297 43.296L169.149 43.142C169.639 41.098 169.639 39.628 169.639 38.354V37.262ZM178.864 43.478H180.012V45.466H178.864V43.478ZM173.712 42.806H185.15V43.744H173.712V42.806ZM174.986 45.172H183.736V49.05H182.574V46.124H174.986V45.172ZM178.864 36.366H180.012V38.13H178.864V36.366ZM178.808 38.284H179.83V38.494C179.83 40.58 177.52 41.798 174.762 42.092L174.398 41.21C176.848 40.986 178.808 39.95 178.808 38.494V38.284ZM179.046 38.284H180.068V38.494C180.068 39.95 182.028 40.986 184.478 41.21L184.114 42.092C181.342 41.798 179.046 40.58 179.046 38.494V38.284ZM174.888 37.668H183.988V38.606H174.888V37.668ZM196.591 38.76H199.979V39.712H196.591V38.76ZM196.479 41.392H199.895V42.344H196.479V41.392ZM199.783 36.436H200.945V44.024H199.783V36.436ZM195.821 37.388H197.067C197.067 40.65 194.813 42.932 191.173 44.024L190.697 43.086C193.931 42.148 195.821 40.286 195.821 37.892V37.388ZM191.355 37.388H196.619V38.34H191.355V37.388ZM196.829 44.164C199.391 44.164 201.015 45.074 201.015 46.6C201.015 48.126 199.391 49.036 196.829 49.036C194.267 49.036 192.643 48.126 192.643 46.6C192.643 45.074 194.267 44.164 196.829 44.164ZM196.829 45.074C194.981 45.074 193.791 45.648 193.791 46.6C193.791 47.552 194.981 48.112 196.829 48.112C198.691 48.112 199.881 47.552 199.881 46.6C199.881 45.648 198.691 45.074 196.829 45.074ZM212.662 36.436H213.824V44.094H212.662V36.436ZM210.562 40.272H213.18V41.238H210.562V40.272ZM205.62 44.766H213.824V48.924H205.62V44.766ZM212.69 45.704H206.754V47.986H212.69V45.704ZM203.436 37.752H210.758V38.69H203.436V37.752ZM207.09 39.334C208.798 39.334 210.016 40.258 210.016 41.602C210.016 42.946 208.798 43.842 207.09 43.842C205.382 43.842 204.164 42.946 204.164 41.602C204.164 40.258 205.382 39.334 207.09 39.334ZM207.09 40.23C206.026 40.23 205.27 40.776 205.27 41.602C205.27 42.414 206.026 42.96 207.09 42.96C208.154 42.96 208.91 42.414 208.91 41.602C208.91 40.776 208.154 40.23 207.09 40.23ZM206.516 36.31H207.678V38.424H206.516V36.31Z" fill="#A29A9A"/>
<circle cx="191" cy="115" r="60" fill="#72EB7F" fill-opacity="0.7"/>
<path d="M152.288 103.832H153.152V104.66C153.152 107.024 150.956 108.86 148.784 109.352L148.34 108.524C150.248 108.164 152.288 106.508 152.288 104.66V103.832ZM152.468 103.832H153.332V104.66C153.332 106.52 155.384 108.164 157.28 108.524L156.836 109.352C154.676 108.86 152.468 107.036 152.468 104.66V103.832ZM147.944 111.656H157.772V112.472H147.944V111.656ZM159.403 104.168H164.383V111.188H159.403V104.168ZM163.411 104.972H160.375V110.384H163.411V104.972ZM166.315 103.088H167.323V113.936H166.315V103.088ZM167.083 107.42H169.099V108.26H167.083V107.42ZM171.282 108.932H178.734V109.736H171.282V108.932ZM170.022 111.716H179.85V112.544H170.022V111.716ZM171.282 104.012H178.614V104.828H172.29V109.184H171.282V104.012ZM171.966 106.436H178.386V107.228H171.966V106.436ZM181.961 103.58H189.929V104.384H181.961V103.58ZM182.009 106.844H189.881V107.648H182.009V106.844ZM183.605 103.952H184.601V107.204H183.605V103.952ZM187.301 103.952H188.285V107.204H187.301V103.952ZM181.049 108.956H190.853V109.772H181.049V108.956ZM185.465 107.384H186.449V109.46H185.465V107.384ZM182.321 112.88H189.773V113.696H182.321V112.88ZM182.321 110.708H183.317V113.144H182.321V110.708ZM192.1 111.728H201.928V112.556H192.1V111.728ZM196.492 108.92H197.488V111.956H196.492V108.92ZM193.24 103.988H200.728V109.1H193.24V103.988ZM199.768 104.792H194.212V108.296H199.768V104.792ZM211.023 103.1H212.031V109.292H211.023V103.1ZM205.023 109.88H212.031V113.792H205.023V109.88ZM211.047 110.672H205.995V112.988H211.047V110.672ZM206.211 103.664C207.855 103.664 209.031 104.696 209.031 106.196C209.031 107.696 207.855 108.728 206.211 108.728C204.567 108.728 203.379 107.696 203.379 106.196C203.379 104.696 204.567 103.664 206.211 103.664ZM206.211 104.492C205.131 104.492 204.351 105.188 204.351 106.196C204.351 107.204 205.131 107.888 206.211 107.888C207.291 107.888 208.071 107.204 208.071 106.196C208.071 105.188 207.291 104.492 206.211 104.492ZM219.59 106.76H222.614V107.576H219.59V106.76ZM216.974 104.024H217.79V105.956C217.79 108.392 216.506 110.72 214.79 111.644L214.154 110.852C215.75 110.06 216.974 107.972 216.974 105.956V104.024ZM217.166 104.024H217.97V105.956C217.97 107.936 219.194 109.904 220.766 110.648L220.178 111.452C218.426 110.564 217.166 108.332 217.166 105.956V104.024ZM222.122 103.076H223.106V113.948H222.122V103.076ZM233.089 103.076H234.085V113.948H233.089V103.076ZM225.829 104H226.813V106.868H229.945V104H230.941V111.332H225.829V104ZM226.813 107.66V110.516H229.945V107.66H226.813ZM152.973 118.832H153.837V119.66C153.837 122.024 151.641 123.86 149.469 124.352L149.025 123.524C150.933 123.164 152.973 121.508 152.973 119.66V118.832ZM153.153 118.832H154.017V119.66C154.017 121.52 156.069 123.164 157.965 123.524L157.521 124.352C155.361 123.86 153.153 122.036 153.153 119.66V118.832ZM148.629 126.656H158.457V127.472H148.629V126.656ZM164.233 119.273V122.273H163.296V119.273H164.233ZM166.415 119.273V122.273H165.477V119.273H166.415ZM173.113 121.455C173.062 121.023 172.854 120.688 172.491 120.449C172.127 120.21 171.681 120.091 171.153 120.091C170.766 120.091 170.428 120.153 170.138 120.278C169.851 120.403 169.627 120.575 169.465 120.794C169.306 121.013 169.226 121.261 169.226 121.54C169.226 121.773 169.282 121.973 169.393 122.141C169.506 122.305 169.651 122.443 169.827 122.554C170.003 122.662 170.188 122.751 170.381 122.822C170.574 122.891 170.752 122.946 170.914 122.989L171.8 123.227C172.028 123.287 172.28 123.369 172.559 123.474C172.84 123.58 173.108 123.723 173.364 123.905C173.623 124.084 173.836 124.314 174.003 124.595C174.171 124.876 174.255 125.222 174.255 125.631C174.255 126.102 174.131 126.528 173.884 126.909C173.64 127.29 173.282 127.592 172.81 127.817C172.341 128.041 171.772 128.153 171.101 128.153C170.476 128.153 169.935 128.053 169.478 127.851C169.023 127.649 168.665 127.368 168.404 127.007C168.145 126.646 167.999 126.227 167.965 125.75H169.056C169.084 126.08 169.195 126.352 169.388 126.568C169.584 126.781 169.831 126.94 170.13 127.045C170.431 127.148 170.755 127.199 171.101 127.199C171.505 127.199 171.867 127.134 172.188 127.003C172.509 126.869 172.763 126.685 172.951 126.449C173.138 126.21 173.232 125.932 173.232 125.614C173.232 125.324 173.151 125.088 172.989 124.906C172.827 124.724 172.614 124.577 172.35 124.463C172.086 124.349 171.8 124.25 171.493 124.165L170.42 123.858C169.738 123.662 169.198 123.382 168.8 123.018C168.403 122.655 168.204 122.179 168.204 121.591C168.204 121.102 168.336 120.676 168.6 120.312C168.867 119.946 169.225 119.662 169.674 119.46C170.126 119.256 170.63 119.153 171.187 119.153C171.749 119.153 172.249 119.254 172.687 119.456C173.124 119.655 173.471 119.928 173.726 120.274C173.985 120.621 174.121 121.014 174.135 121.455H173.113ZM175.524 123.788H185.328V124.604H175.524V123.788ZM176.796 127.88H184.248V128.696H176.796V127.88ZM176.796 125.552H177.792V128.132H176.796V125.552ZM180.432 118.448C182.748 118.448 184.248 119.264 184.248 120.62C184.248 121.964 182.748 122.78 180.432 122.78C178.104 122.78 176.616 121.964 176.616 120.62C176.616 119.264 178.104 118.448 180.432 118.448ZM180.432 119.264C178.728 119.264 177.636 119.768 177.636 120.62C177.636 121.472 178.728 121.976 180.432 121.976C182.136 121.976 183.228 121.472 183.228 120.62C183.228 119.768 182.136 119.264 180.432 119.264ZM194.759 118.088H195.707V124.952H194.759V118.088ZM192.995 121.028H195.047V121.856H192.995V121.028ZM192.443 118.304H193.379V124.568H192.443V118.304ZM186.515 119.384H192.011V120.176H186.515V119.384ZM189.275 120.728C190.631 120.728 191.579 121.472 191.579 122.588C191.579 123.716 190.631 124.448 189.275 124.448C187.907 124.448 186.959 123.716 186.959 122.588C186.959 121.472 187.907 120.728 189.275 120.728ZM189.275 121.472C188.423 121.472 187.847 121.916 187.847 122.588C187.847 123.272 188.423 123.704 189.275 123.704C190.115 123.704 190.691 123.272 190.691 122.588C190.691 121.916 190.115 121.472 189.275 121.472ZM188.783 118.172H189.755V119.828H188.783V118.172ZM192.155 125.144C194.411 125.144 195.767 125.816 195.767 127.028C195.767 128.228 194.411 128.912 192.155 128.912C189.875 128.912 188.531 128.228 188.531 127.028C188.531 125.816 189.875 125.144 192.155 125.144ZM192.155 125.912C190.487 125.912 189.515 126.308 189.515 127.028C189.515 127.748 190.487 128.156 192.155 128.156C193.799 128.156 194.783 127.748 194.783 127.028C194.783 126.308 193.799 125.912 192.155 125.912ZM202.246 118.784H203.29C203.29 121.544 201.31 123.488 198.118 124.34L197.734 123.548C200.554 122.804 202.246 121.232 202.246 119.228V118.784ZM198.298 118.784H202.822V119.588H198.298V118.784ZM205.498 118.088H206.506V124.208H205.498V118.088ZM199.486 124.736H206.506V128.792H199.486V124.736ZM205.522 125.54H200.47V127.976H205.522V125.54ZM208.641 123.704H218.445V124.508H208.641V123.704ZM213.057 122.372H214.041V124.076H213.057V122.372ZM213.057 118.052H214.041V119.564H213.057V118.052ZM213.009 119.66H213.885V119.84C213.885 121.616 211.893 122.648 209.517 122.888L209.217 122.12C211.317 121.94 213.009 121.076 213.009 119.84V119.66ZM213.213 119.66H214.089V119.84C214.089 121.076 215.781 121.94 217.881 122.12L217.581 122.888C215.205 122.648 213.213 121.616 213.213 119.84V119.66ZM209.649 119.144H217.449V119.936H209.649V119.144ZM213.537 125.324C215.877 125.324 217.257 125.96 217.257 127.124C217.257 128.288 215.877 128.912 213.537 128.912C211.197 128.912 209.817 128.288 209.817 127.124C209.817 125.96 211.197 125.324 213.537 125.324ZM213.537 126.08C211.821 126.08 210.825 126.44 210.825 127.124C210.825 127.784 211.821 128.156 213.537 128.156C215.253 128.156 216.249 127.784 216.249 127.124C216.249 126.44 215.253 126.08 213.537 126.08ZM219.68 124.388H229.52V125.204H219.68V124.388ZM224.072 124.88H225.056V128.936H224.072V124.88ZM220.928 118.688H228.248V122.924H220.928V118.688ZM227.276 119.492H221.912V122.12H227.276V119.492ZM231.921 119.273V122.273H230.983V119.273H231.921ZM234.102 119.273V122.273H233.165V119.273H234.102Z" fill="white"/>
<circle cx="85" cy="91" r="60" fill="#D740F0" fill-opacity="0.5"/>
<path d="M40.7682 81.832H41.6322V82.66C41.6322 85.024 39.4362 86.86 37.2642 87.352L36.8202 86.524C38.7282 86.164 40.7682 84.508 40.7682 82.66V81.832ZM40.9482 81.832H41.8122V82.66C41.8122 84.52 43.8642 86.164 45.7602 86.524L45.3162 87.352C43.1562 86.86 40.9482 85.036 40.9482 82.66V81.832ZM36.4242 89.656H46.2522V90.472H36.4242V89.656ZM47.8833 82.168H52.8633V89.188H47.8833V82.168ZM51.8913 82.972H48.8553V88.384H51.8913V82.972ZM54.7953 81.088H55.8033V91.936H54.7953V81.088ZM55.5633 85.42H57.5793V86.26H55.5633V85.42ZM59.7623 86.932H67.2143V87.736H59.7623V86.932ZM58.5023 89.716H68.3303V90.544H58.5023V89.716ZM59.7623 82.012H67.0943V82.828H60.7703V87.184H59.7623V82.012ZM60.4463 84.436H66.8663V85.228H60.4463V84.436ZM70.4414 81.58H78.4094V82.384H70.4414V81.58ZM70.4894 84.844H78.3614V85.648H70.4894V84.844ZM72.0854 81.952H73.0814V85.204H72.0854V81.952ZM75.7814 81.952H76.7654V85.204H75.7814V81.952ZM69.5294 86.956H79.3334V87.772H69.5294V86.956ZM73.9454 85.384H74.9294V87.46H73.9454V85.384ZM70.8014 90.88H78.2534V91.696H70.8014V90.88ZM70.8014 88.708H71.7974V91.144H70.8014V88.708ZM81.0605 81.904H81.9965V83.572H84.3125V81.904H85.2605V86.896H81.0605V81.904ZM81.9965 84.364V86.092H84.3125V84.364H81.9965ZM88.7645 81.1H89.7125V87.736H88.7645V81.1ZM87.0365 83.968H89.0885V84.796H87.0365V83.968ZM86.4365 81.304H87.3845V87.4H86.4365V81.304ZM86.1485 88C88.3805 88 89.7725 88.708 89.7725 89.956C89.7725 91.192 88.3805 91.924 86.1485 91.924C83.9045 91.924 82.5365 91.192 82.5365 89.956C82.5365 88.708 83.9045 88 86.1485 88ZM86.1485 88.768C84.5165 88.768 83.5085 89.212 83.5085 89.956C83.5085 90.712 84.5165 91.144 86.1485 91.144C87.7805 91.144 88.7765 90.712 88.7765 89.956C88.7765 89.212 87.7805 88.768 86.1485 88.768ZM96.2995 81.832H97.3315C97.3315 84.628 95.7715 86.644 92.3035 87.664L91.9195 86.86C95.0035 85.972 96.2995 84.328 96.2995 82.216V81.832ZM92.3875 81.832H96.8395V82.636H92.3875V81.832ZM96.1675 83.824V84.532L92.0155 84.844L91.8475 84.028L96.1675 83.824ZM99.5035 81.1H100.512V87.616H99.5035V81.1ZM96.9235 87.772C99.1675 87.772 100.572 88.54 100.572 89.848C100.572 91.156 99.1675 91.924 96.9235 91.924C94.6795 91.924 93.2875 91.156 93.2875 89.848C93.2875 88.54 94.6795 87.772 96.9235 87.772ZM96.9235 88.564C95.2795 88.564 94.2715 89.032 94.2715 89.848C94.2715 90.652 95.2795 91.132 96.9235 91.132C98.5675 91.132 99.5755 90.652 99.5755 89.848C99.5755 89.032 98.5675 88.564 96.9235 88.564ZM108.071 84.76H111.095V85.576H108.071V84.76ZM105.455 82.024H106.271V83.956C106.271 86.392 104.987 88.72 103.271 89.644L102.635 88.852C104.231 88.06 105.455 85.972 105.455 83.956V82.024ZM105.647 82.024H106.451V83.956C106.451 85.936 107.675 87.904 109.247 88.648L108.659 89.452C106.907 88.564 105.647 86.332 105.647 83.956V82.024ZM110.603 81.076H111.587V91.948H110.603V81.076ZM121.57 81.076H122.566V91.948H121.57V81.076ZM114.31 82H115.294V84.868H118.426V82H119.422V89.332H114.31V82ZM115.294 85.66V88.516H118.426V85.66H115.294ZM129.081 81.832H129.945V82.66C129.945 85.024 127.749 86.86 125.577 87.352L125.133 86.524C127.041 86.164 129.081 84.508 129.081 82.66V81.832ZM129.261 81.832H130.125V82.66C130.125 84.52 132.177 86.164 134.073 86.524L133.629 87.352C131.469 86.86 129.261 85.036 129.261 82.66V81.832ZM124.737 89.656H134.565V90.472H124.737V89.656ZM50.9382 97.2727V100.273H50.0007V97.2727H50.9382ZM53.12 97.2727V100.273H52.1825V97.2727H53.12ZM55.0451 106V97.2727H56.1019V101.602H56.2042L60.1246 97.2727H61.5053L57.8406 101.21L61.5053 106H60.2269L57.1928 101.943L56.1019 103.17V106H55.0451ZM62.4044 101.788H72.2084V102.604H62.4044V101.788ZM63.6764 105.88H71.1284V106.696H63.6764V105.88ZM63.6764 103.552H64.6724V106.132H63.6764V103.552ZM67.3124 96.448C69.6284 96.448 71.1284 97.264 71.1284 98.62C71.1284 99.964 69.6284 100.78 67.3124 100.78C64.9844 100.78 63.4964 99.964 63.4964 98.62C63.4964 97.264 64.9844 96.448 67.3124 96.448ZM67.3124 97.264C65.6084 97.264 64.5164 97.768 64.5164 98.62C64.5164 99.472 65.6084 99.976 67.3124 99.976C69.0164 99.976 70.1084 99.472 70.1084 98.62C70.1084 97.768 69.0164 97.264 67.3124 97.264ZM81.6395 96.088H82.5875V102.952H81.6395V96.088ZM79.8755 99.028H81.9275V99.856H79.8755V99.028ZM79.3235 96.304H80.2595V102.568H79.3235V96.304ZM73.3955 97.384H78.8915V98.176H73.3955V97.384ZM76.1555 98.728C77.5115 98.728 78.4595 99.472 78.4595 100.588C78.4595 101.716 77.5115 102.448 76.1555 102.448C74.7875 102.448 73.8395 101.716 73.8395 100.588C73.8395 99.472 74.7875 98.728 76.1555 98.728ZM76.1555 99.472C75.3035 99.472 74.7275 99.916 74.7275 100.588C74.7275 101.272 75.3035 101.704 76.1555 101.704C76.9955 101.704 77.5715 101.272 77.5715 100.588C77.5715 99.916 76.9955 99.472 76.1555 99.472ZM75.6635 96.172H76.6355V97.828H75.6635V96.172ZM79.0355 103.144C81.2915 103.144 82.6475 103.816 82.6475 105.028C82.6475 106.228 81.2915 106.912 79.0355 106.912C76.7555 106.912 75.4115 106.228 75.4115 105.028C75.4115 103.816 76.7555 103.144 79.0355 103.144ZM79.0355 103.912C77.3675 103.912 76.3955 104.308 76.3955 105.028C76.3955 105.748 77.3675 106.156 79.0355 106.156C80.6795 106.156 81.6635 105.748 81.6635 105.028C81.6635 104.308 80.6795 103.912 79.0355 103.912ZM87.0625 96.676C88.4905 96.676 89.5225 97.684 89.5225 99.136C89.5225 100.6 88.4905 101.596 87.0625 101.596C85.6105 101.596 84.5905 100.6 84.5905 99.136C84.5905 97.684 85.6105 96.676 87.0625 96.676ZM87.0625 97.492C86.1625 97.492 85.5025 98.176 85.5025 99.136C85.5025 100.096 86.1625 100.78 87.0625 100.78C87.9505 100.78 88.6225 100.096 88.6225 99.136C88.6225 98.176 87.9505 97.492 87.0625 97.492ZM92.6785 96.1H93.6265V101.992H92.6785V96.1ZM90.9745 98.584H93.0145V99.4H90.9745V98.584ZM90.3505 96.304H91.2985V101.92H90.3505V96.304ZM86.5225 102.496H87.5065V103.78H92.6665V102.496H93.6265V106.792H86.5225V102.496ZM87.5065 104.572V105.976H92.6665V104.572H87.5065ZM95.5216 101.836H105.326V102.64H95.5216V101.836ZM99.9256 100.432H100.91V102.172H99.9256V100.432ZM96.8176 99.988H104.174V100.768H96.8176V99.988ZM96.8176 96.4H104.126V97.18H97.8016V100.408H96.8176V96.4ZM97.5136 98.176H103.838V98.944H97.5136V98.176ZM100.418 103.444C102.782 103.444 104.138 104.044 104.138 105.184C104.138 106.312 102.782 106.912 100.418 106.912C98.0536 106.912 96.6976 106.312 96.6976 105.184C96.6976 104.044 98.0536 103.444 100.418 103.444ZM100.418 104.2C98.6776 104.2 97.7056 104.548 97.7056 105.184C97.7056 105.832 98.6776 106.168 100.418 106.168C102.158 106.168 103.13 105.832 103.13 105.184C103.13 104.548 102.158 104.2 100.418 104.2ZM109.237 97.252H110.053V98.128C110.053 100.12 108.853 101.788 107.029 102.448L106.525 101.656C108.157 101.08 109.237 99.676 109.237 98.128V97.252ZM109.417 97.252H110.233V98.116C110.233 99.532 111.265 100.804 112.861 101.332L112.381 102.112C110.569 101.512 109.417 99.964 109.417 98.116V97.252ZM106.825 96.892H112.621V97.708H106.825V96.892ZM113.989 96.088H114.985V102.628H113.989V96.088ZM114.709 98.836H116.593V99.676H114.709V98.836ZM111.529 102.916C113.737 102.916 115.093 103.648 115.093 104.908C115.093 106.18 113.737 106.912 111.529 106.912C109.321 106.912 107.965 106.18 107.965 104.908C107.965 103.648 109.321 102.916 111.529 102.916ZM111.529 103.72C109.921 103.72 108.937 104.152 108.937 104.908C108.937 105.676 109.921 106.132 111.529 106.132C113.137 106.132 114.121 105.676 114.121 104.908C114.121 104.152 113.137 103.72 111.529 103.72ZM118.801 97.2727V100.273H117.864V97.2727H118.801ZM120.983 97.2727V100.273H120.046V97.2727H120.983Z" fill="white"/>
<circle cx="100" cy="190" r="60" fill="#5EBDDB" fill-opacity="0.7"/>
<path d="M55.7682 185.832H56.6322V186.66C56.6322 189.024 54.4362 190.86 52.2642 191.352L51.8202 190.524C53.7282 190.164 55.7682 188.508 55.7682 186.66V185.832ZM55.9482 185.832H56.8122V186.66C56.8122 188.52 58.8642 190.164 60.7602 190.524L60.3162 191.352C58.1562 190.86 55.9482 189.036 55.9482 186.66V185.832ZM51.4242 193.656H61.2522V194.472H51.4242V193.656ZM62.8833 186.168H67.8633V193.188H62.8833V186.168ZM66.8913 186.972H63.8553V192.384H66.8913V186.972ZM69.7953 185.088H70.8033V195.936H69.7953V185.088ZM70.5633 189.42H72.5793V190.26H70.5633V189.42ZM74.7623 190.932H82.2143V191.736H74.7623V190.932ZM73.5023 193.716H83.3303V194.544H73.5023V193.716ZM74.7623 186.012H82.0943V186.828H75.7703V191.184H74.7623V186.012ZM75.4463 188.436H81.8663V189.228H75.4463V188.436ZM85.4414 185.58H93.4094V186.384H85.4414V185.58ZM85.4894 188.844H93.3614V189.648H85.4894V188.844ZM87.0854 185.952H88.0814V189.204H87.0854V185.952ZM90.7814 185.952H91.7654V189.204H90.7814V185.952ZM84.5294 190.956H94.3334V191.772H84.5294V190.956ZM88.9454 189.384H89.9294V191.46H88.9454V189.384ZM85.8014 194.88H93.2534V195.696H85.8014V194.88ZM85.8014 192.708H86.7974V195.144H85.8014V192.708ZM103.476 185.088H104.472V195.936H103.476V185.088ZM100.296 186.252H101.28C101.28 189.396 99.8645 192.144 96.2405 193.92L95.7125 193.116C98.8445 191.604 100.296 189.3 100.296 186.42V186.252ZM96.2045 186.252H100.728V187.068H96.2045V186.252ZM114.036 185.1H115.032V193.056H114.036V185.1ZM114.72 188.376H116.64V189.204H114.72V188.376ZM108.276 194.88H115.524V195.696H108.276V194.88ZM108.276 192.288H109.272V195.072H108.276V192.288ZM107.064 185.868H108.048V187.68H111.108V185.868H112.08V191.244H107.064V185.868ZM108.048 188.46V190.44H111.108V188.46H108.048ZM120.323 191.292H121.307V194.184H120.323V191.292ZM123.827 191.292H124.811V194.184H123.827V191.292ZM117.659 193.728H127.487V194.556H117.659V193.728ZM122.003 185.796H122.867V186.624C122.867 188.904 120.635 190.62 118.427 191.052L118.007 190.236C119.939 189.912 122.003 188.388 122.003 186.624V185.796ZM122.183 185.796H123.047V186.624C123.047 188.388 125.111 189.912 127.043 190.236L126.635 191.052C124.415 190.62 122.183 188.904 122.183 186.624V185.796ZM129.178 186.012H134.998V186.84H129.178V186.012ZM128.998 190.968L128.878 190.128C130.738 190.128 133.354 190.104 135.514 189.828L135.598 190.56C133.39 190.932 130.822 190.968 128.998 190.968ZM130.246 186.588H131.206V190.512H130.246V186.588ZM132.958 186.588H133.93V190.512H132.958V186.588ZM136.582 185.1H137.59V191.736H136.582V185.1ZM134.014 191.976C136.27 191.976 137.662 192.696 137.662 193.932C137.662 195.192 136.27 195.912 134.014 195.912C131.746 195.912 130.378 195.192 130.378 193.932C130.378 192.696 131.746 191.976 134.014 191.976ZM134.014 192.756C132.358 192.756 131.362 193.2 131.362 193.932C131.362 194.7 132.358 195.132 134.014 195.132C135.67 195.132 136.666 194.7 136.666 193.932C136.666 193.2 135.67 192.756 134.014 192.756ZM139.725 189.816H149.529V190.62H139.725V189.816ZM144.129 188.436H145.113V190.092H144.129V188.436ZM140.997 185.448H148.257V188.748H140.997V185.448ZM147.285 186.24H141.981V187.956H147.285V186.24ZM140.913 191.52H148.281V193.956H141.921V195.276H140.937V193.236H147.297V192.288H140.913V191.52ZM140.937 195.036H148.605V195.816H140.937V195.036ZM73.7185 200.796H80.4985V201.6H73.7185V200.796ZM72.4945 205.452H82.2985V206.268H72.4945V205.452ZM76.8745 205.992H77.8705V210.948H76.8745V205.992ZM80.0305 200.796H81.0025V201.732C81.0025 202.86 81.0025 204.132 80.5945 205.968L79.6105 205.836C80.0305 204.084 80.0305 202.824 80.0305 201.732V200.796ZM87.9376 206.124H88.9216V207.828H87.9376V206.124ZM83.5216 205.548H93.3256V206.352H83.5216V205.548ZM84.6136 207.576H92.1136V210.9H91.1176V208.392H84.6136V207.576ZM87.9376 200.028H88.9216V201.54H87.9376V200.028ZM87.8896 201.672H88.7656V201.852C88.7656 203.64 86.7856 204.684 84.4216 204.936L84.1096 204.18C86.2096 203.988 87.8896 203.1 87.8896 201.852V201.672ZM88.0936 201.672H88.9696V201.852C88.9696 203.1 90.6496 203.988 92.7496 204.18L92.4376 204.936C90.0616 204.684 88.0936 203.64 88.0936 201.852V201.672ZM84.5296 201.144H92.3296V201.948H84.5296V201.144ZM99.1374 201.273V204.273H98.1999V201.273H99.1374ZM101.319 201.273V204.273H100.382V201.273H101.319ZM110.9 201.624H112.784V202.452H110.9V201.624ZM110.9 204H112.784V204.828H110.9V204ZM110.204 200.088H111.2V206.352H110.204V200.088ZM104.384 206.88H111.2V210.792H104.384V206.88ZM110.228 207.672H105.355V209.988H110.228V207.672ZM105.812 200.724C107.444 200.724 108.644 201.78 108.644 203.292C108.644 204.792 107.444 205.836 105.812 205.836C104.18 205.836 102.979 204.792 102.979 203.292C102.979 201.78 104.18 200.724 105.812 200.724ZM105.812 201.564C104.732 201.564 103.951 202.272 103.951 203.292C103.951 204.312 104.732 205.008 105.812 205.008C106.892 205.008 107.672 204.312 107.672 203.292C107.672 202.272 106.892 201.564 105.812 201.564ZM118.243 204.372H120.295V205.188H118.243V204.372ZM116.035 202.86H116.803V203.424C116.803 205.584 115.903 207.768 114.319 208.716L113.731 207.96C115.195 207.108 116.035 205.2 116.035 203.424V202.86ZM116.215 202.86H116.983V203.424C116.983 205.152 117.847 206.94 119.311 207.732L118.747 208.476C117.151 207.588 116.215 205.536 116.215 203.424V202.86ZM114.031 202.08H118.987V202.908H114.031V202.08ZM116.035 200.472H116.995V202.716H116.035V200.472ZM122.071 200.088H123.031V210.936H122.071V200.088ZM119.899 200.34H120.835V210.384H119.899V200.34ZM126.055 201.273V204.273H125.118V201.273H126.055ZM128.237 201.273V204.273H127.3V201.273H128.237Z" fill="white"/>
<circle cx="205" cy="215" r="60" fill="#F2E916" fill-opacity="0.7"/>
<path d="M159.756 213.728H169.584V214.556H159.756V213.728ZM164.148 210.92H165.144V213.956H164.148V210.92ZM160.896 205.988H168.384V211.1H160.896V205.988ZM167.424 206.792H161.868V210.296H167.424V206.792ZM178.127 205.088H179.135V215.936H178.127V205.088ZM178.895 209.348H180.911V210.2H178.895V209.348ZM171.215 206H172.199V208.868H175.295V206H176.279V213.332H171.215V206ZM172.199 209.66V212.516H175.295V209.66H172.199ZM184.87 205.484C186.49 205.484 187.678 206.468 187.678 207.896C187.678 209.312 186.49 210.296 184.87 210.296C183.262 210.296 182.074 209.312 182.074 207.896C182.074 206.468 183.262 205.484 184.87 205.484ZM184.87 206.3C183.826 206.3 183.034 206.96 183.034 207.896C183.034 208.832 183.826 209.48 184.87 209.48C185.926 209.48 186.706 208.832 186.706 207.896C186.706 206.96 185.926 206.3 184.87 206.3ZM189.718 205.088H190.726V210.644H189.718V205.088ZM183.706 211.172H190.726V213.812H184.702V215.444H183.73V213.068H189.742V211.976H183.706V211.172ZM183.73 215H191.086V215.792H183.73V215ZM198.621 208.076H201.357V208.892H198.621V208.076ZM200.793 205.1H201.789V213.044H200.793V205.1ZM194.865 214.88H202.089V215.696H194.865V214.88ZM194.865 212.348H195.861V215.3H194.865V212.348ZM195.633 206.444H196.449V207.32C196.449 209.288 195.225 210.992 193.413 211.664L192.897 210.872C194.517 210.296 195.633 208.856 195.633 207.32V206.444ZM195.825 206.444H196.629V207.308C196.629 208.712 197.685 210.08 199.257 210.632L198.753 211.412C196.989 210.776 195.825 209.144 195.825 207.308V206.444ZM193.209 205.976H199.005V206.78H193.209V205.976ZM206.325 208.76H207.309V210.812H206.325V208.76ZM210.309 208.76H211.293V210.812H210.309V208.76ZM203.901 210.452H213.705V211.256H203.901V210.452ZM208.797 212.072C211.125 212.072 212.517 212.756 212.517 213.992C212.517 215.228 211.125 215.924 208.797 215.924C206.469 215.924 205.076 215.228 205.076 213.992C205.076 212.756 206.469 212.072 208.797 212.072ZM208.797 212.84C207.105 212.84 206.085 213.26 206.085 213.992C206.085 214.736 207.105 215.144 208.797 215.144C210.501 215.144 211.509 214.736 211.509 213.992C211.509 213.26 210.501 212.84 208.797 212.84ZM208.809 205.28C211.161 205.28 212.625 206.036 212.625 207.308C212.625 208.568 211.161 209.312 208.809 209.312C206.445 209.312 204.993 208.568 204.993 207.308C204.993 206.036 206.445 205.28 208.809 205.28ZM208.809 206.06C207.081 206.06 206.013 206.516 206.013 207.308C206.013 208.088 207.081 208.544 208.809 208.544C210.537 208.544 211.605 208.088 211.605 207.308C211.605 206.516 210.537 206.06 208.809 206.06ZM223.739 208.76H226.763V209.576H223.739V208.76ZM221.123 206.024H221.939V207.956C221.939 210.392 220.655 212.72 218.939 213.644L218.303 212.852C219.899 212.06 221.123 209.972 221.123 207.956V206.024ZM221.315 206.024H222.119V207.956C222.119 209.936 223.343 211.904 224.915 212.648L224.327 213.452C222.575 212.564 221.315 210.332 221.315 207.956V206.024ZM226.271 205.076H227.255V215.948H226.271V205.076ZM237.238 205.076H238.234V215.948H237.238V205.076ZM229.978 206H230.962V208.868H234.094V206H235.09V213.332H229.978V206ZM230.962 209.66V212.516H234.094V209.66H230.962ZM244.749 205.832H245.613V206.66C245.613 209.024 243.417 210.86 241.245 211.352L240.801 210.524C242.709 210.164 244.749 208.508 244.749 206.66V205.832ZM244.929 205.832H245.793V206.66C245.793 208.52 247.845 210.164 249.741 210.524L249.297 211.352C247.137 210.86 244.929 209.036 244.929 206.66V205.832ZM240.405 213.656H250.233V214.472H240.405V213.656ZM177.004 220.088H178V230.936H177.004V220.088ZM173.824 221.252H174.808C174.808 224.396 173.392 227.144 169.768 228.92L169.24 228.116C172.372 226.604 173.824 224.3 173.824 221.42V221.252ZM169.732 221.252H174.256V222.068H169.732V221.252ZM180.543 221.072H186.891V221.816H180.543V221.072ZM183.723 222.236C185.283 222.236 186.303 222.86 186.303 223.844C186.303 224.84 185.283 225.464 183.723 225.464C182.175 225.464 181.155 224.84 181.155 223.844C181.155 222.86 182.175 222.236 183.723 222.236ZM183.723 222.932C182.751 222.932 182.091 223.28 182.091 223.844C182.091 224.396 182.751 224.768 183.723 224.768C184.719 224.768 185.355 224.396 185.355 223.844C185.355 223.28 184.719 222.932 183.723 222.932ZM183.219 220.016H184.227V221.468H183.219V220.016ZM183.219 225.068H184.227V226.544H183.219V225.068ZM188.019 220.1H189.015V227.36H188.019V220.1ZM181.743 227.864H189.015V230.936H188.019V228.656H181.743V227.864ZM180.327 227.024L180.195 226.22C182.187 226.22 184.875 226.208 187.155 225.896L187.227 226.592C184.863 226.988 182.283 227.024 180.327 227.024ZM199.745 222.08H202.649V222.896H199.745V222.08ZM199.649 224.336H202.577V225.152H199.649V224.336ZM202.481 220.088H203.477V226.592H202.481V220.088ZM199.085 220.904H200.153C200.153 223.7 198.221 225.656 195.101 226.592L194.693 225.788C197.465 224.984 199.085 223.388 199.085 221.336V220.904ZM195.257 220.904H199.769V221.72H195.257V220.904ZM199.949 226.712C202.145 226.712 203.537 227.492 203.537 228.8C203.537 230.108 202.145 230.888 199.949 230.888C197.753 230.888 196.361 230.108 196.361 228.8C196.361 227.492 197.753 226.712 199.949 226.712ZM199.949 227.492C198.365 227.492 197.345 227.984 197.345 228.8C197.345 229.616 198.365 230.096 199.949 230.096C201.545 230.096 202.565 229.616 202.565 228.8C202.565 227.984 201.545 227.492 199.949 227.492ZM213.52 220.088H214.516V226.652H213.52V220.088ZM211.72 223.376H213.964V224.204H211.72V223.376ZM207.484 227.228H214.516V230.792H207.484V227.228ZM213.544 228.032H208.456V229.988H213.544V228.032ZM205.612 221.216H211.888V222.02H205.612V221.216ZM208.744 222.572C210.208 222.572 211.252 223.364 211.252 224.516C211.252 225.668 210.208 226.436 208.744 226.436C207.28 226.436 206.236 225.668 206.236 224.516C206.236 223.364 207.28 222.572 208.744 222.572ZM208.744 223.34C207.832 223.34 207.184 223.808 207.184 224.516C207.184 225.212 207.832 225.68 208.744 225.68C209.656 225.68 210.304 225.212 210.304 224.516C210.304 223.808 209.656 223.34 208.744 223.34ZM208.252 219.98H209.248V221.792H208.252V219.98ZM220.002 225.368H229.806V226.184H220.002V225.368ZM220.914 220.496H228.882V221.3H220.914V220.496ZM220.962 223.556H228.834V224.372H220.962V223.556ZM222.558 220.844H223.554V224.108H222.558V220.844ZM226.254 220.844H227.238V224.108H226.254V220.844ZM224.898 227.204C227.226 227.204 228.606 227.864 228.606 229.064C228.606 230.252 227.226 230.912 224.898 230.912C222.57 230.912 221.19 230.252 221.19 229.064C221.19 227.864 222.57 227.204 224.898 227.204ZM224.898 227.972C223.194 227.972 222.198 228.368 222.198 229.064C222.198 229.76 223.194 230.156 224.898 230.156C226.602 230.156 227.598 229.76 227.598 229.064C227.598 228.368 226.602 227.972 224.898 227.972ZM224.418 225.74H225.402V227.516H224.418V225.74ZM231.041 226.508H240.881V227.324H231.041V226.508ZM235.433 226.892H236.417V230.936H235.433V226.892ZM232.277 220.52H233.273V222.008H238.637V220.52H239.621V225.212H232.277V220.52ZM233.273 222.812V224.408H238.637V222.812H233.273Z" fill="white"/>
</svg>
